<?xml version="1.0" encoding="UTF-8"?>
<svg id="Layer_1" xmlns="http://www.w3.org/2000/svg" version="1.1" viewBox="0 0 841.9 595.3">
  <!-- Generator: Adobe Illustrator 29.8.2, SVG Export Plug-In . SVG Version: 2.1.1 Build 3)  -->
  <defs>
    <style>
      .st0 {
        fill: #e6e6e6;
      }
    </style>
  </defs>
  <g>
    <path class="st0" d="M412,339.9c-.3,0-.6-.1-.8-.3l-16.5-14.1c-.4-.3-.5-.9-.3-1.3l7.5-19.3c.1-.3.4-.6.7-.7l19.3-7.6c.5-.2,1,0,1.4.3l14.1,16.6c.3.3.3.7.2,1.1l-5.2,19.3c-.1.4-.4.7-.8.8l-19.3,5.2c-.1,0-.2,0-.3,0ZM396.9,324.2l15.4,13.2,18-4.8,4.8-18-13.2-15.5-18,7.1-7,18Z"/>
    <path class="st0" d="M368.5,298.7c-.3,0-.7-.1-.9-.4l-14.1-16.5c-.3-.3-.4-.7-.2-1.1l5.2-19.3c.1-.4.4-.7.8-.8l19.3-5.2c.4-.1.8,0,1.1.2l16.6,14.1c.4.3.5.9.3,1.4l-7.6,19.3c-.1.3-.4.6-.7.7l-19.3,7.5c-.1,0-.3,0-.4,0ZM355.6,280.7l13.2,15.4,18-7,7.1-18-15.5-13.2-18,4.8-4.8,18Z"/>
    <path class="st0" d="M414.5,317.9c-.5,0-.9-.3-1.1-.7l-8.3-19c-.1-.3-.1-.7,0-1l8.4-19.1c.2-.5.7-.8,1.2-.7l21.6,1.8c.4,0,.7.3.9.6l10,17.3c.2.4.2.8,0,1.2l-10,17.3c-.2.3-.6.6-.9.6l-21.7,1.7s0,0,0,0ZM407.5,297.6l7.7,17.8,20.2-1.6,9.3-16.2-9.3-16.2-20.2-1.7-7.8,17.9Z"/>
    <path class="st0" d="M376.3,318s0,0-.1,0l-21.6-1.8c-.4,0-.7-.3-.9-.6l-10-17.3c-.2-.4-.2-.8,0-1.2l10-17.3c.2-.3.6-.6.9-.6l21.7-1.7c.5,0,1,.2,1.2.7l8.3,19c.1.3.1.7,0,1l-8.4,19.1c-.2.4-.6.7-1.1.7ZM355.4,313.8l20.2,1.7,7.8-17.9-7.7-17.8-20.2,1.6-9.3,16.2,9.3,16.2Z"/>
    <path class="st0" d="M422.4,298.8c-.1,0-.3,0-.4,0l-19.3-7.6c-.3-.1-.6-.4-.7-.7l-7.6-19.3c-.2-.5,0-1,.3-1.4l16.6-14.1c.3-.3.7-.3,1.1-.2l19.3,5.2c.4.1.7.4.8.8l5.2,19.3c.1.4,0,.8-.2,1.1l-14.1,16.6c-.2.3-.6.4-.9.4ZM404,289.1l18,7.1,13.2-15.5-4.8-18-18-4.8-15.5,13.2,7.1,18Z"/>
    <path class="st0" d="M378.8,339.9c-.1,0-.2,0-.3,0l-19.3-5.2c-.4-.1-.7-.4-.8-.8l-5.2-19.3c-.1-.4,0-.8.2-1.1l14.1-16.5c.3-.4.9-.5,1.3-.3l19.3,7.5c.3.1.6.4.7.7l7.5,19.3c.2.5,0,1-.3,1.3l-16.5,14.1c-.2.2-.5.3-.8.3ZM360.5,332.6l18,4.8,15.4-13.2-7-18-18-7-13.2,15.4,4.8,18Z"/>
    <path class="st0" d="M395.4,288.1c-.2,0-.3,0-.5,0l-19-8.3c-.5-.2-.8-.7-.7-1.2l1.7-21.7c0-.4.3-.7.6-.9l17.3-10c.4-.2.8-.2,1.2,0l17.3,10c.3.2.6.5.6.9l1.8,21.6c0,.5-.2,1-.7,1.2l-19.1,8.4c-.2,0-.3.1-.5.1ZM377.6,277.8l17.8,7.7,17.9-7.8-1.7-20.2-16.2-9.3-16.2,9.3-1.6,20.2Z"/>
    <path class="st0" d="M395.4,349.6c-.2,0-.4,0-.6-.2l-17.3-10c-.3-.2-.6-.5-.6-.9l-1.8-21.6c0-.5.2-1,.7-1.2l19.1-8.4c.3-.1.7-.1,1,0l19,8.3c.5.2.8.7.7,1.2l-1.7,21.7c0,.4-.3.7-.6.9l-17.3,10c-.2.1-.4.2-.6.2ZM379.2,337.7l16.2,9.3,16.2-9.3,1.6-20.2-17.8-7.7-17.9,7.8,1.7,20.2Z"/>
  </g>
  <g>
    <path class="st0" d="M261.9,189.8c-.3,0-.6-.1-.8-.3l-16.5-14.1c-.4-.3-.5-.9-.3-1.3l7.5-19.3c.1-.3.4-.6.7-.7l19.3-7.6c.5-.2,1,0,1.4.3l14.1,16.6c.3.3.3.7.2,1.1l-5.2,19.3c-.1.4-.4.7-.8.8l-19.3,5.2c-.1,0-.2,0-.3,0ZM246.8,174.1l15.4,13.2,18-4.8,4.8-18-13.2-15.5-18,7.1-7,18Z"/>
    <path class="st0" d="M218.3,148.6c-.3,0-.7-.1-.9-.4l-14.1-16.5c-.3-.3-.4-.7-.2-1.1l5.2-19.3c.1-.4.4-.7.8-.8l19.3-5.2c.4-.1.8,0,1.1.2l16.6,14.1c.4.3.5.9.3,1.4l-7.6,19.3c-.1.3-.4.6-.7.7l-19.3,7.5c-.1,0-.3,0-.4,0ZM205.5,130.6l13.2,15.4,18-7,7.1-18-15.5-13.2-18,4.8-4.8,18Z"/>
    <path class="st0" d="M264.3,167.7c-.5,0-.9-.3-1.1-.7l-8.3-19c-.1-.3-.1-.7,0-1l8.4-19.1c.2-.5.7-.8,1.2-.7l21.6,1.8c.4,0,.7.3.9.6l10,17.3c.2.4.2.8,0,1.2l-10,17.3c-.2.3-.6.6-.9.6l-21.7,1.7s0,0,0,0ZM257.4,147.5l7.7,17.8,20.2-1.6,9.3-16.2-9.3-16.2-20.2-1.7-7.8,17.9Z"/>
    <path class="st0" d="M226.1,167.8s0,0-.1,0l-21.6-1.8c-.4,0-.7-.3-.9-.6l-10-17.3c-.2-.4-.2-.8,0-1.2l10-17.3c.2-.3.6-.6.9-.6l21.7-1.7c.5,0,1,.2,1.2.7l8.3,19c.1.3.1.7,0,1l-8.4,19.1c-.2.4-.6.7-1.1.7ZM205.2,163.7l20.2,1.7,7.8-17.9-7.7-17.8-20.2,1.6-9.3,16.2,9.3,16.2Z"/>
    <path class="st0" d="M272.2,148.7c-.1,0-.3,0-.4,0l-19.3-7.6c-.3-.1-.6-.4-.7-.7l-7.6-19.3c-.2-.5,0-1,.3-1.4l16.6-14.1c.3-.3.7-.3,1.1-.2l19.3,5.2c.4.1.7.4.8.8l5.2,19.3c.1.4,0,.8-.2,1.1l-14.1,16.6c-.2.3-.6.4-.9.4ZM253.8,138.9l18,7.1,13.2-15.5-4.8-18-18-4.8-15.5,13.2,7.1,18Z"/>
    <path class="st0" d="M228.7,189.8c-.1,0-.2,0-.3,0l-19.3-5.2c-.4-.1-.7-.4-.8-.8l-5.2-19.3c-.1-.4,0-.8.2-1.1l14.1-16.5c.3-.4.9-.5,1.3-.3l19.3,7.5c.3.1.6.4.7.7l7.5,19.3c.2.5,0,1-.3,1.3l-16.5,14.1c-.2.2-.5.3-.8.3ZM210.3,182.4l18,4.8,15.4-13.2-7-18-18-7-13.2,15.4,4.8,18Z"/>
    <path class="st0" d="M245.3,137.9c-.2,0-.3,0-.5,0l-19-8.3c-.5-.2-.8-.7-.7-1.2l1.7-21.7c0-.4.3-.7.6-.9l17.3-10c.4-.2.8-.2,1.2,0l17.3,10c.3.2.6.5.6.9l1.8,21.6c0,.5-.2,1-.7,1.2l-19.1,8.4c-.2,0-.3.1-.5.1ZM227.5,127.7l17.8,7.7,17.9-7.8-1.7-20.2-16.2-9.3-16.2,9.3-1.6,20.2Z"/>
    <path class="st0" d="M245.3,199.5c-.2,0-.4,0-.6-.2l-17.3-10c-.3-.2-.6-.5-.6-.9l-1.8-21.6c0-.5.2-1,.7-1.2l19.1-8.4c.3-.1.7-.1,1,0l19,8.3c.5.2.8.7.7,1.2l-1.7,21.7c0,.4-.3.7-.6.9l-17.3,10c-.2.1-.4.2-.6.2ZM229.1,187.5l16.2,9.3,16.2-9.3,1.6-20.2-17.8-7.7-17.9,7.8,1.7,20.2Z"/>
  </g>
  <g>
    <path class="st0" d="M272.2,449c-.1,0-.3,0-.4,0l-19.3-7.6c-.3-.1-.6-.4-.7-.7l-7.5-19.3c-.2-.5,0-1,.3-1.3l16.5-14.1c.3-.3.7-.4,1.1-.2l19.3,5.2c.4.1.7.4.8.8l5.2,19.3c.1.4,0,.8-.2,1.1l-14.1,16.6c-.2.3-.6.4-.9.4ZM253.8,439.2l18,7.1,13.2-15.5-4.8-18-18-4.8-15.4,13.2,7,18Z"/>
    <path class="st0" d="M228.7,490.1c-.1,0-.2,0-.3,0l-19.3-5.2c-.4-.1-.7-.4-.8-.8l-5.2-19.3c-.1-.4,0-.8.2-1.1l14.1-16.5c.3-.4.9-.5,1.3-.3l19.3,7.5c.3.1.6.4.7.7l7.6,19.3c.2.5,0,1-.3,1.4l-16.6,14.1c-.2.2-.5.3-.8.3ZM210.3,482.7l18,4.8,15.5-13.2-7.1-18-18-7-13.2,15.4,4.8,18Z"/>
    <path class="st0" d="M264.4,468.1c-.5,0-.9-.3-1.1-.7l-8.4-19.1c-.1-.3-.1-.7,0-1l8.3-19c.2-.5.7-.8,1.2-.7l21.7,1.7c.4,0,.7.3.9.6l10,17.3c.2.4.2.8,0,1.2l-10,17.3c-.2.3-.5.6-.9.6l-21.6,1.8s0,0-.1,0ZM257.4,447.8l7.8,17.9,20.2-1.7,9.3-16.2-9.3-16.2-20.2-1.6-7.7,17.8Z"/>
    <path class="st0" d="M226.2,468s0,0,0,0l-21.7-1.7c-.4,0-.7-.3-.9-.6l-10-17.3c-.2-.4-.2-.8,0-1.2l10-17.3c.2-.3.5-.6.9-.6l21.6-1.8c.5,0,1,.2,1.2.7l8.4,19.1c.1.3.1.7,0,1l-8.3,19c-.2.4-.6.7-1.1.7ZM205.2,464l20.2,1.6,7.7-17.8-7.8-17.9-20.2,1.7-9.3,16.2,9.3,16.2Z"/>
    <path class="st0" d="M261.9,490.1c-.3,0-.6,0-.8-.3l-16.6-14.1c-.4-.3-.5-.9-.3-1.4l7.6-19.3c.1-.3.4-.6.7-.7l19.3-7.6c.5-.2,1,0,1.4.3l14.1,16.6c.3.3.3.7.2,1.1l-5.2,19.3c-.1.4-.4.7-.8.8l-19.3,5.2c-.1,0-.2,0-.3,0ZM246.7,474.4l15.5,13.2,18-4.8,4.8-18-13.2-15.5-18,7.1-7.1,18Z"/>
    <path class="st0" d="M218.3,448.9c-.3,0-.7-.1-.9-.4l-14.1-16.5c-.3-.3-.4-.7-.2-1.1l5.2-19.3c.1-.4.4-.7.8-.8l19.3-5.2c.4-.1.8,0,1.1.2l16.5,14.1c.4.3.5.9.3,1.3l-7.5,19.3c-.1.3-.4.6-.7.7l-19.3,7.5c-.1,0-.3,0-.4,0ZM205.5,430.9l13.2,15.4,18-7,7-18-15.4-13.2-18,4.8-4.8,18Z"/>
    <path class="st0" d="M245.3,499.8c-.2,0-.4,0-.6-.2l-17.3-10c-.3-.2-.6-.6-.6-.9l-1.7-21.7c0-.5.2-1,.7-1.2l19-8.3c.3-.1.7-.1,1,0l19.1,8.4c.5.2.8.7.7,1.2l-1.8,21.6c0,.4-.3.7-.6.9l-17.3,10c-.2.1-.4.2-.6.2ZM229.1,487.9l16.2,9.3,16.2-9.3,1.7-20.2-17.9-7.8-17.8,7.7,1.6,20.2Z"/>
    <path class="st0" d="M245.3,438.2c-.2,0-.3,0-.5-.1l-19.1-8.4c-.5-.2-.8-.7-.7-1.2l1.8-21.6c0-.4.3-.7.6-.9l17.3-10c.4-.2.8-.2,1.2,0l17.3,10c.3.2.6.6.6.9l1.7,21.7c0,.5-.2,1-.7,1.2l-19,8.3c-.2,0-.3,0-.5,0ZM227.4,427.9l17.9,7.8,17.8-7.7-1.6-20.2-16.2-9.3-16.2,9.3-1.7,20.2Z"/>
  </g>
  <g>
    <path class="st0" d="M529,189.8c-.1,0-.2,0-.3,0l-19.3-5.2c-.4-.1-.7-.4-.8-.8l-5.2-19.3c-.1-.4,0-.8.2-1.1l14.1-16.6c.3-.4.9-.5,1.4-.3l19.3,7.6c.3.1.6.4.7.7l7.5,19.3c.2.5,0,1-.3,1.3l-16.5,14.1c-.2.2-.5.3-.8.3ZM510.6,182.4l18,4.8,15.4-13.2-7-18-18-7.1-13.2,15.5,4.8,18Z"/>
    <path class="st0" d="M572.5,148.6c-.1,0-.3,0-.4,0l-19.3-7.5c-.3-.1-.6-.4-.7-.7l-7.6-19.3c-.2-.5,0-1,.3-1.4l16.6-14.1c.3-.3.7-.3,1.1-.2l19.3,5.2c.4.1.7.4.8.8l5.2,19.3c.1.4,0,.8-.2,1.1l-14.1,16.5c-.2.3-.6.4-.9.4ZM554.1,138.9l18,7,13.2-15.4-4.8-18-18-4.8-15.5,13.2,7.1,18Z"/>
    <path class="st0" d="M526.5,167.7s0,0,0,0l-21.7-1.7c-.4,0-.7-.3-.9-.6l-10-17.3c-.2-.4-.2-.8,0-1.2l10-17.3c.2-.3.5-.6.9-.6l21.6-1.8c.5,0,1,.2,1.2.7l8.4,19.1c.1.3.1.7,0,1l-8.3,19c-.2.4-.6.7-1.1.7ZM505.5,163.7l20.2,1.6,7.7-17.8-7.8-17.9-20.2,1.7-9.3,16.2,9.3,16.2Z"/>
    <path class="st0" d="M564.7,167.8c-.5,0-.9-.3-1.1-.7l-8.4-19.1c-.1-.3-.1-.7,0-1l8.3-19c.2-.5.7-.8,1.2-.7l21.7,1.7c.4,0,.7.3.9.6l10,17.3c.2.4.2.8,0,1.2l-10,17.3c-.2.3-.5.6-.9.6l-21.6,1.8s0,0-.1,0ZM557.6,147.5l7.8,17.9,20.2-1.7,9.3-16.2-9.3-16.2-20.2-1.6-7.7,17.8Z"/>
    <path class="st0" d="M518.6,148.7c-.3,0-.7-.1-.9-.4l-14.1-16.6c-.3-.3-.3-.7-.2-1.1l5.2-19.3c.1-.4.4-.7.8-.8l19.3-5.2c.4-.1.8,0,1.1.2l16.6,14.1c.4.3.5.9.3,1.4l-7.6,19.3c-.1.3-.4.6-.7.7l-19.3,7.6c-.1,0-.3,0-.4,0ZM505.8,130.6l13.2,15.5,18-7.1,7.1-18-15.5-13.2-18,4.8-4.8,18Z"/>
    <path class="st0" d="M562.1,189.8c-.3,0-.6-.1-.8-.3l-16.5-14.1c-.4-.3-.5-.9-.3-1.3l7.5-19.3c.1-.3.4-.6.7-.7l19.3-7.5c.5-.2,1,0,1.3.3l14.1,16.5c.3.3.4.7.2,1.1l-5.2,19.3c-.1.4-.4.7-.8.8l-19.3,5.2c-.1,0-.2,0-.3,0ZM547.1,174.1l15.4,13.2,18-4.8,4.8-18-13.2-15.4-18,7-7,18Z"/>
    <path class="st0" d="M545.5,137.9c-.2,0-.3,0-.5-.1l-19.1-8.4c-.5-.2-.8-.7-.7-1.2l1.8-21.6c0-.4.3-.7.6-.9l17.3-10c.4-.2.8-.2,1.2,0l17.3,10c.3.2.6.6.6.9l1.7,21.7c0,.5-.2,1-.7,1.2l-19,8.3c-.2,0-.3,0-.5,0ZM527.7,127.6l17.9,7.8,17.8-7.7-1.6-20.2-16.2-9.3-16.2,9.3-1.7,20.2Z"/>
    <path class="st0" d="M545.5,199.5c-.2,0-.4,0-.6-.2l-17.3-10c-.3-.2-.6-.6-.6-.9l-1.7-21.7c0-.5.2-1,.7-1.2l19-8.3c.3-.1.7-.1,1,0l19.1,8.4c.5.2.8.7.7,1.2l-1.8,21.6c0,.4-.3.7-.6.9l-17.3,10c-.2.1-.4.2-.6.2ZM529.4,187.5l16.2,9.3,16.2-9.3,1.7-20.2-17.9-7.8-17.8,7.7,1.6,20.2Z"/>
  </g>
  <g>
    <path class="st0" d="M518.6,449c-.3,0-.7-.1-.9-.4l-14.1-16.6c-.3-.3-.3-.7-.2-1.1l5.2-19.3c.1-.4.4-.7.8-.8l19.3-5.2c.4-.1.8,0,1.1.2l16.5,14.1c.4.3.5.9.3,1.3l-7.5,19.3c-.1.3-.4.6-.7.7l-19.3,7.6c-.1,0-.3,0-.4,0ZM505.8,430.9l13.2,15.5,18-7.1,7-18-15.4-13.2-18,4.8-4.8,18Z"/>
    <path class="st0" d="M562.1,490.1c-.3,0-.6,0-.8-.3l-16.6-14.1c-.4-.3-.5-.9-.3-1.4l7.6-19.3c.1-.3.4-.6.7-.7l19.3-7.5c.5-.2,1,0,1.3.3l14.1,16.5c.3.3.4.7.2,1.1l-5.2,19.3c-.1.4-.4.7-.8.8l-19.3,5.2c-.1,0-.2,0-.3,0ZM547,474.4l15.5,13.2,18-4.8,4.8-18-13.2-15.4-18,7-7.1,18Z"/>
    <path class="st0" d="M526.4,468.1s0,0-.1,0l-21.6-1.8c-.4,0-.7-.3-.9-.6l-10-17.3c-.2-.4-.2-.8,0-1.2l10-17.3c.2-.3.6-.6.9-.6l21.7-1.7c.5,0,1,.2,1.2.7l8.3,19c.1.3.1.7,0,1l-8.4,19.1c-.2.4-.6.7-1.1.7ZM505.5,464l20.2,1.7,7.8-17.9-7.7-17.8-20.2,1.6-9.3,16.2,9.3,16.2Z"/>
    <path class="st0" d="M564.6,468c-.5,0-.9-.3-1.1-.7l-8.3-19c-.1-.3-.1-.7,0-1l8.4-19.1c.2-.5.7-.8,1.2-.7l21.6,1.8c.4,0,.7.3.9.6l10,17.3c.2.4.2.8,0,1.2l-10,17.3c-.2.3-.6.6-.9.6l-21.7,1.7s0,0,0,0ZM557.6,447.8l7.7,17.8,20.2-1.6,9.3-16.2-9.3-16.2-20.2-1.7-7.8,17.9Z"/>
    <path class="st0" d="M529,490.1c-.1,0-.2,0-.3,0l-19.3-5.2c-.4-.1-.7-.4-.8-.8l-5.2-19.3c-.1-.4,0-.8.2-1.1l14.1-16.6c.3-.4.9-.5,1.4-.3l19.3,7.6c.3.1.6.4.7.7l7.6,19.3c.2.5,0,1-.3,1.4l-16.6,14.1c-.2.2-.5.3-.8.3ZM510.6,482.7l18,4.8,15.5-13.2-7.1-18-18-7.1-13.2,15.5,4.8,18Z"/>
    <path class="st0" d="M572.5,448.9c-.1,0-.3,0-.4,0l-19.3-7.5c-.3-.1-.6-.4-.7-.7l-7.5-19.3c-.2-.5,0-1,.3-1.3l16.5-14.1c.3-.3.7-.4,1.1-.2l19.3,5.2c.4.1.7.4.8.8l5.2,19.3c.1.4,0,.8-.2,1.1l-14.1,16.5c-.2.3-.6.4-.9.4ZM554.1,439.2l18,7,13.2-15.4-4.8-18-18-4.8-15.4,13.2,7,18Z"/>
    <path class="st0" d="M545.5,499.8c-.2,0-.4,0-.6-.2l-17.3-10c-.3-.2-.6-.5-.6-.9l-1.8-21.6c0-.5.2-1,.7-1.2l19.1-8.4c.3-.1.7-.1,1,0l19,8.3c.5.2.8.7.7,1.2l-1.7,21.7c0,.4-.3.7-.6.9l-17.3,10c-.2.1-.4.2-.6.2ZM529.4,487.8l16.2,9.3,16.2-9.3,1.6-20.2-17.8-7.7-17.9,7.8,1.7,20.2Z"/>
    <path class="st0" d="M545.5,438.2c-.2,0-.3,0-.5,0l-19-8.3c-.5-.2-.8-.7-.7-1.2l1.7-21.7c0-.4.3-.7.6-.9l17.3-10c.4-.2.8-.2,1.2,0l17.3,10c.3.2.6.5.6.9l1.8,21.6c0,.5-.2,1-.7,1.2l-19.1,8.4c-.2,0-.3.1-.5.1ZM527.8,428l17.8,7.7,17.9-7.8-1.7-20.2-16.2-9.3-16.2,9.3-1.6,20.2Z"/>
  </g>
  <g>
    <g>
      <g>
        <path class="st0" d="M266.4,377.8c-.1,0-.2,0-.3,0l-15.7-4.2c-.4-.1-.7-.4-.8-.8l-15.4-57.4c0-.3,0-.6.1-.9.2-.3.4-.5.7-.6l5.8-1.5c.4-.1.9,0,1.2.3l3.4,3.4,3.4-3.4c.3-.3.7-.4,1.2-.3l4.6,1.2,1.2-4.6c.1-.4.4-.7.8-.8l5.8-1.5c.3,0,.6,0,.9.1.3.2.5.4.6.7l15.4,57.4c.1.4,0,.9-.3,1.2l-11.5,11.5c-.2.2-.5.4-.8.4ZM251.6,371.4l14.4,3.9,10.5-10.5-14.9-55.6-3.9,1.1-1.4,5.1c-.2.6-.8,1-1.5.8l-5.1-1.4-3.7,3.7c-.5.5-1.2.5-1.7,0l-3.7-3.7-3.9,1.1,14.9,55.6Z"/>
        <path class="st0" d="M228,288.9c-.2,0-.4,0-.6-.2-.3-.2-.5-.4-.6-.7l-15.4-57.4c-.1-.4,0-.9.3-1.2l11.5-11.5c.3-.3.7-.4,1.2-.3l15.7,4.2c.4.1.7.4.8.8l15.4,57.4c.2.6-.2,1.3-.8,1.5l-5.8,1.5c-.4.1-.9,0-1.2-.3l-3.4-3.4-3.4,3.4c-.3.3-.7.4-1.2.3l-4.6-1.2-1.2,4.6c-.1.4-.4.7-.8.8l-5.8,1.5c-.1,0-.2,0-.3,0ZM213.9,230.6l14.9,55.6,3.9-1.1,1.4-5.1c.2-.6.8-1,1.5-.8l5.1,1.4,3.7-3.7c.5-.5,1.2-.5,1.7,0l3.7,3.7,3.9-1.1-14.9-55.6-14.4-3.9-10.5,10.5Z"/>
        <path class="st0" d="M287.3,360.8c-.3,0-.6-.1-.8-.4l-42-42c-.2-.2-.4-.5-.4-.8s.1-.6.4-.8l4.2-4.2c.3-.3.7-.4,1.2-.3l4.6,1.2,1.2-4.6c.1-.4.4-.7.8-.8l4.6-1.2-1.2-4.6c-.1-.4,0-.9.3-1.2l4.2-4.2c.5-.5,1.2-.5,1.7,0l42,42c.3.3.4.7.3,1.2l-4.2,15.7c-.1.4-.4.7-.8.8l-15.7,4.2c-.1,0-.2,0-.3,0ZM246.9,317.6l40.7,40.7,14.4-3.9,3.9-14.4-40.7-40.7-2.9,2.9,1.4,5.1c.2.6-.2,1.3-.8,1.5l-5.1,1.4-1.4,5.1c-.2.6-.8,1-1.5.8l-5.1-1.4-2.9,2.9Z"/>
        <path class="st0" d="M225.3,298.8c-.3,0-.6-.1-.8-.4l-42-42c-.3-.3-.4-.7-.3-1.2l4.2-15.7c.1-.4.4-.7.8-.8l15.7-4.2c.4-.1.9,0,1.2.3l42,42c.5.5.5,1.2,0,1.7l-4.2,4.2c-.3.3-.7.4-1.2.3l-4.6-1.2-1.2,4.6c-.1.4-.4.7-.8.8l-4.6,1.2,1.2,4.6c.1.4,0,.9-.3,1.2l-4.2,4.2c-.2.2-.5.4-.8.4ZM184.6,255.2l40.7,40.7,2.9-2.9-1.4-5.1c-.2-.6.2-1.3.8-1.5l5.1-1.4,1.4-5.1c.2-.6.8-1,1.5-.8l5.1,1.4,2.9-2.9-40.7-40.7-14.4,3.9-3.9,14.4Z"/>
        <path class="st0" d="M312.7,331.5c-.1,0-.2,0-.3,0l-57.4-15.4c-.6-.2-1-.8-.8-1.5l1.5-5.8c.1-.4.4-.7.8-.8l4.6-1.2-1.2-4.6c-.1-.4,0-.9.3-1.2l3.4-3.4-3.4-3.4c-.3-.3-.4-.7-.3-1.2l1.5-5.8c.2-.6.8-1,1.5-.8l57.4,15.4c.4.1.7.4.8.8l4.2,15.7c.1.4,0,.9-.3,1.2l-11.5,11.5c-.2.2-.5.4-.8.4ZM256.7,314.1l55.6,14.9,10.5-10.5-3.9-14.4-55.6-14.9-1.1,3.9,3.7,3.7c.5.5.5,1.2,0,1.7l-3.7,3.7,1.4,5.1c.2.6-.2,1.3-.8,1.5l-5.1,1.4-1.1,3.9Z"/>
        <path class="st0" d="M228,308.8c-.1,0-.2,0-.3,0l-57.4-15.4c-.4-.1-.7-.4-.8-.8l-4.2-15.7c-.1-.4,0-.9.3-1.2l11.5-11.5c.3-.3.7-.4,1.2-.3l57.4,15.4c.6.2,1,.8.8,1.5l-1.5,5.8c-.1.4-.4.7-.8.8l-4.6,1.2,1.2,4.6c.1.4,0,.9-.3,1.2l-3.4,3.4,3.4,3.4c.3.3.4.7.3,1.2l-1.5,5.8c-.1.5-.6.9-1.2.9ZM171.5,291.3l55.6,14.9,1.1-3.9-3.7-3.7c-.5-.5-.5-1.2,0-1.7l3.7-3.7-1.4-5.1c-.2-.6.2-1.3.8-1.5l5.1-1.4,1.1-3.9-55.6-14.9-10.5,10.5,3.9,14.4Z"/>
        <path class="st0" d="M262.5,308.8c-.5,0-1-.4-1.2-.9l-1.5-5.8c-.1-.4,0-.9.3-1.2l3.4-3.4-3.4-3.4c-.3-.3-.4-.7-.3-1.2l1.2-4.6-4.6-1.2c-.4-.1-.7-.4-.8-.8l-1.5-5.8c-.2-.6.2-1.3.8-1.5l57.4-15.4c.4-.1.9,0,1.2.3l11.5,11.5c.3.3.4.7.3,1.2l-4.2,15.7c-.1.4-.4.7-.8.8l-57.4,15.4c-.1,0-.2,0-.3,0ZM262.3,302.2l1.1,3.9,55.6-14.9,3.9-14.4-10.5-10.5-55.6,14.9,1.1,3.9,5.1,1.4c.6.2,1,.8.8,1.5l-1.4,5.1,3.7,3.7c.5.5.5,1.2,0,1.7l-3.7,3.7Z"/>
        <path class="st0" d="M177.8,331.5c-.3,0-.6-.1-.8-.4l-11.5-11.5c-.3-.3-.4-.7-.3-1.2l4.2-15.7c.1-.4.4-.7.8-.8l57.4-15.4c.6-.2,1.3.2,1.5.8l1.5,5.8c.1.4,0,.9-.3,1.2l-3.4,3.4,3.4,3.4c.3.3.4.7.3,1.2l-1.2,4.6,4.6,1.2c.4.1.7.4.8.8l1.5,5.8c.2.6-.2,1.3-.8,1.5l-57.4,15.4c-.1,0-.2,0-.3,0ZM167.6,318.4l10.5,10.5,55.6-14.9-1.1-3.9-5.1-1.4c-.6-.2-1-.8-.8-1.5l1.4-5.1-3.7-3.7c-.5-.5-.5-1.2,0-1.7l3.7-3.7-1.1-3.9-55.6,14.9-3.9,14.4Z"/>
        <path class="st0" d="M265.2,298.8c-.3,0-.6-.1-.8-.4l-4.2-4.2c-.3-.3-.4-.7-.3-1.2l1.2-4.6-4.6-1.2c-.4-.1-.7-.4-.8-.8l-1.2-4.6-4.6,1.2c-.4.1-.9,0-1.2-.3l-4.2-4.2c-.2-.2-.4-.5-.4-.8s.1-.6.4-.8l42-42c.3-.3.7-.4,1.2-.3l15.7,4.2c.4.1.7.4.8.8l4.2,15.7c.1.4,0,.9-.3,1.2l-42,42c-.2.2-.5.4-.8.4ZM262.3,293.1l2.9,2.9,40.7-40.7-3.9-14.4-14.4-3.9-40.7,40.7,2.9,2.9,5.1-1.4c.6-.2,1.3.2,1.5.8l1.4,5.1,5.1,1.4c.6.2,1,.8.8,1.5l-1.4,5.1Z"/>
        <path class="st0" d="M203.2,360.8c-.1,0-.2,0-.3,0l-15.7-4.2c-.4-.1-.7-.4-.8-.8l-4.2-15.7c-.1-.4,0-.9.3-1.2l42-42c.5-.5,1.2-.5,1.7,0l4.2,4.2c.3.3.4.7.3,1.2l-1.2,4.6,4.6,1.2c.4.1.7.4.8.8l1.2,4.6,4.6-1.2c.4-.1.9,0,1.2.3l4.2,4.2c.2.2.4.5.4.8s-.1.6-.4.8l-42,42c-.2.2-.5.4-.8.4ZM188.4,354.4l14.4,3.9,40.7-40.7-2.9-2.9-5.1,1.4c-.6.2-1.3-.2-1.5-.8l-1.4-5.1-5.1-1.4c-.6-.2-1-.8-.8-1.5l1.4-5.1-2.9-2.9-40.7,40.7,3.9,14.4Z"/>
        <path class="st0" d="M262.5,288.9c-.1,0-.2,0-.3,0l-5.8-1.5c-.4-.1-.7-.4-.8-.8l-1.2-4.6-4.6,1.2c-.4.1-.9,0-1.2-.3l-3.4-3.4-3.4,3.4c-.3.3-.7.4-1.2.3l-5.8-1.5c-.6-.2-1-.8-.8-1.5l15.4-57.4c.1-.4.4-.7.8-.8l15.7-4.2c.4-.1.9,0,1.2.3l11.5,11.5c.3.3.4.7.3,1.2l-15.4,57.4c0,.3-.3.6-.6.7-.2.1-.4.2-.6.2ZM257.8,285.1l3.9,1.1,14.9-55.6-10.5-10.5-14.4,3.9-14.9,55.6,3.9,1.1,3.7-3.7c.5-.5,1.2-.5,1.7,0l3.7,3.7,5.1-1.4c.6-.2,1.3.2,1.5.8l1.4,5.1Z"/>
        <path class="st0" d="M224.1,377.8c-.3,0-.6-.1-.8-.4l-11.5-11.5c-.3-.3-.4-.7-.3-1.2l15.4-57.4c0-.3.3-.6.6-.7.3-.2.6-.2.9-.1l5.8,1.5c.4.1.7.4.8.8l1.2,4.6,4.6-1.2c.4-.1.9,0,1.2.3l3.4,3.4,3.4-3.4c.3-.3.7-.4,1.2-.3l5.8,1.5c.3,0,.6.3.7.6.2.3.2.6.1.9l-15.4,57.4c-.1.4-.4.7-.8.8l-15.7,4.2c-.1,0-.2,0-.3,0ZM213.9,364.7l10.5,10.5,14.4-3.9,14.9-55.6-3.9-1.1-3.7,3.7c-.5.5-1.2.5-1.7,0l-3.7-3.7-5.1,1.4c-.6.2-1.3-.2-1.5-.8l-1.4-5.1-3.9-1.1-14.9,55.6Z"/>
        <path class="st0" d="M245.3,318.8c-.3,0-.6-.1-.8-.4l-3.7-3.7-5.1,1.4c-.6.2-1.3-.2-1.5-.8l-1.4-5.1-5.1-1.4c-.6-.2-1-.8-.8-1.5l1.4-5.1-3.7-3.7c-.5-.5-.5-1.2,0-1.7l3.7-3.7-1.4-5.1c-.2-.6.2-1.3.8-1.5l5.1-1.4,1.4-5.1c.2-.6.8-1,1.5-.8l5.1,1.4,3.7-3.7c.5-.5,1.2-.5,1.7,0l3.7,3.7,5.1-1.4c.6-.2,1.3.2,1.5.8l1.4,5.1,5.1,1.4c.6.2,1,.8.8,1.5l-1.4,5.1,3.7,3.7c.5.5.5,1.2,0,1.7l-3.7,3.7,1.4,5.1c.2.6-.2,1.3-.8,1.5l-5.1,1.4-1.4,5.1c-.2.6-.8,1-1.5.8l-5.1-1.4-3.7,3.7c-.2.2-.5.4-.8.4ZM241,312.2c.3,0,.6.1.8.4l3.4,3.4,3.4-3.4c.3-.3.7-.4,1.2-.3l4.6,1.2,1.2-4.6c.1-.4.4-.7.8-.8l4.6-1.2-1.2-4.6c-.1-.4,0-.9.3-1.2l3.4-3.4-3.4-3.4c-.3-.3-.4-.7-.3-1.2l1.2-4.6-4.6-1.2c-.4-.1-.7-.4-.8-.8l-1.2-4.6-4.6,1.2c-.4.1-.9,0-1.2-.3l-3.4-3.4-3.4,3.4c-.3.3-.7.4-1.2.3l-4.6-1.2-1.2,4.6c-.1.4-.4.7-.8.8l-4.6,1.2,1.2,4.6c.1.4,0,.9-.3,1.2l-3.4,3.4,3.4,3.4c.3.3.4.7.3,1.2l-1.2,4.6,4.6,1.2c.4.1.7.4.8.8l1.2,4.6,4.6-1.2c.1,0,.2,0,.3,0Z"/>
      </g>
      <g>
        <path class="st0" d="M215.7,409.3c-.3,0-.6-.1-.8-.4l-11.5-11.5c-.3-.3-.4-.7-.3-1.2l4.2-15.7c.1-.4.4-.7.8-.8l15.7-4.2c.4-.1.9,0,1.2.3l11.5,11.5c.3.3.4.7.3,1.2l-4.2,15.7c-.1.4-.4.7-.8.8l-15.7,4.2c-.1,0-.2,0-.3,0ZM205.5,396.2l10.5,10.5,14.4-3.9,3.9-14.4-10.5-10.5-14.4,3.9-3.9,14.4Z"/>
        <path class="st0" d="M266.4,219.9c-.3,0-.6-.1-.8-.4l-11.5-11.5c-.3-.3-.4-.8-.3-1.3l7-18.6c.1-.4.4-.6.8-.7l19.3-5.2c.6-.2,1.2.2,1.4.8l5.2,15.3c0,.2,0,.5,0,.7l-4.2,15.7c-.1.4-.4.7-.8.8l-15.7,4.2c-.1,0-.2,0-.3,0ZM256.3,206.9l10.5,10.5,14.4-3.9,3.9-14.7-4.7-13.9-17.7,4.8-6.5,17.3Z"/>
      </g>
      <g>
        <path class="st0" d="M281.2,413.1c-.1,0-.2,0-.3,0l-19.3-5.2c-.4-.1-.7-.4-.8-.7l-7-18.6c-.2-.4,0-.9.3-1.3l11.5-11.5c.3-.3.7-.4,1.2-.3l15.7,4.2c.4.1.7.4.8.8l4.2,15.7c0,.2,0,.5,0,.7l-5.2,15.3c-.2.5-.6.8-1.1.8ZM262.8,405.7l17.6,4.8,4.7-13.9-3.9-14.7-14.4-3.9-10.5,10.5,6.6,17.3Z"/>
        <path class="st0" d="M224.1,219.9c-.1,0-.2,0-.3,0l-15.7-4.2c-.4-.1-.7-.4-.8-.8l-4.2-15.7c-.1-.4,0-.9.3-1.2l11.5-11.5c.3-.3.7-.4,1.2-.3l15.7,4.2c.4.1.7.4.8.8l4.2,15.7c.1.4,0,.9-.3,1.2l-11.5,11.5c-.2.2-.5.4-.8.4ZM209.3,213.5l14.4,3.9,10.5-10.5-3.9-14.4-14.4-3.9-10.5,10.5,3.9,14.4Z"/>
      </g>
      <g>
        <path class="st0" d="M309.5,383.6l-11.5-11.5c-.3-.3-.4-.7-.3-1.2l4.2-15.7c.1-.4.4-.7.8-.8l15.7-4.2c.4-.1.9,0,1.2.3l11.5,11.5-1.7,1.7-11-11-14.4,3.9-3.9,14.4,11,11-1.7,1.7Z"/>
        <path class="st0" d="M171.7,245.3c-.3,0-.6-.1-.8-.4l-11.5-11.5,1.7-1.7,11,11,14.4-3.9,3.9-14.4-11-11,1.7-1.7,11.5,11.5c.3.3.4.7.3,1.2l-4.2,15.7c-.1.4-.4.7-.8.8l-15.7,4.2c-.1,0-.2,0-.3,0Z"/>
      </g>
      <g>
        <path class="st0" d="M344.2,340c-.1,0-.2,0-.3,0l-15.7-4.2c-.4-.1-.7-.4-.8-.8l-4.2-15.7c-.1-.4,0-.9.3-1.2l11.5-11.5c.3-.3.8-.4,1.3-.3l18.6,6.9c.4.1.6.4.7.8l5.2,19.4c.2.6-.2,1.2-.8,1.4l-15.3,5.2c-.1,0-.3,0-.4,0ZM329.4,333.6l14.7,3.9,13.9-4.7-4.8-17.7-17.3-6.4-10.5,10.5,3.9,14.4Z"/>
        <path class="st0" d="M154.8,289.2c-.1,0-.2,0-.3,0l-15.7-4.2c-.4-.1-.7-.4-.8-.8l-4.2-15.7c-.1-.4,0-.9.3-1.2l11.5-11.5c.3-.3.7-.4,1.2-.3l15.7,4.2c.4.1.7.4.8.8l4.2,15.7c.1.4,0,.9-.3,1.2l-11.5,11.5c-.2.2-.5.4-.8.4ZM140,282.8l14.4,3.9,10.5-10.5-3.9-14.4-14.4-3.9-10.5,10.5,3.9,14.4Z"/>
      </g>
      <g>
        <path class="st0" d="M335.7,289.2c-.3,0-.6-.1-.8-.4l-11.5-11.5c-.3-.3-.4-.7-.3-1.2l4.2-15.7c.1-.4.4-.7.8-.8l15.7-4.2c.2,0,.5,0,.7,0l15.3,5.2c.6.2.9.8.8,1.5l-5.2,19.2c-.1.4-.4.7-.7.8l-18.6,7.1c-.1,0-.3,0-.4,0ZM325.5,276.1l10.5,10.5,17.3-6.6,4.8-17.5-13.9-4.7-14.7,3.9-3.9,14.4Z"/>
        <path class="st0" d="M146.3,340c-.3,0-.6-.1-.8-.4l-11.5-11.5c-.3-.3-.4-.7-.3-1.2l4.2-15.7c.1-.4.4-.7.8-.8l15.7-4.2c.4-.1.9,0,1.2.3l11.5,11.5c.3.3.4.7.3,1.2l-4.2,15.7c-.1.4-.4.7-.8.8l-15.7,4.2c-.1,0-.2,0-.3,0ZM136.2,326.9l10.5,10.5,14.4-3.9,3.9-14.4-10.5-10.5-14.4,3.9-3.9,14.4Z"/>
      </g>
      <g>
        <path class="st0" d="M318.8,245.3c-.1,0-.2,0-.3,0l-15.7-4.2c-.4-.1-.7-.4-.8-.8l-4.2-15.7c-.1-.4,0-.9.3-1.2l11.5-11.5,1.7,1.7-11,11,3.9,14.4,14.4,3.9,11-11,1.7,1.7-11.5,11.5c-.2.2-.5.4-.8.4Z"/>
        <path class="st0" d="M181,383.6l-1.7-1.7,11-11-3.9-14.4-14.4-3.9-11,11-1.7-1.7,11.5-11.5c.3-.3.7-.4,1.2-.3l15.7,4.2c.4.1.7.4.8.8l4.2,15.7c.1.4,0,.9-.3,1.2l-11.5,11.5Z"/>
      </g>
    </g>
    <g>
      <path class="st0" d="M203.1,397.2l-8.2-12.3-14.8-1,.2-2.4,15.4,1c.4,0,.7.2.9.5l8.6,12.8-2,1.3Z"/>
      <path class="st0" d="M310.3,213.8l-15.4-1c-.4,0-.7-.2-.9-.5l-8.6-12.8,2-1.3,8.2,12.3,14.8,1-.2,2.4Z"/>
    </g>
    <g>
      <path class="st0" d="M261.3,407.7l-16.1-9.3-13.3,6.6-1.1-2.2,13.8-6.8c.4-.2.8-.2,1.1,0l16.7,9.7-1.2,2.1Z"/>
      <path class="st0" d="M245.3,199.5c-.2,0-.4,0-.5-.1l-13.8-6.8,1.1-2.2,13.3,6.6,16-9.3,1.2,2.1-16.6,9.7c-.2.1-.4.2-.6.2Z"/>
    </g>
    <g>
      <path class="st0" d="M287.4,397.2l-2-1.3,8.6-12.8c.2-.3.5-.5.9-.5l15.4-1,.2,2.4-14.8,1-8.2,12.3Z"/>
      <path class="st0" d="M180.2,213.8l-.2-2.4,14.8-1,8.2-12.3,2,1.3-8.6,12.8c-.2.3-.5.5-.9.5l-15.4,1Z"/>
    </g>
    <g>
      <path class="st0" d="M331.5,362.8l-2.4-.2,1-15.4c0-.4.2-.7.5-.9l12.8-8.6,1.3,2-12.3,8.2-1,14.8Z"/>
      <path class="st0" d="M147,257.5l-1.3-2,12.3-8.2,1-14.8,2.4.2-1,15.4c0,.4-.2.7-.5.9l-12.8,8.6Z"/>
    </g>
    <g>
      <path class="st0" d="M353.3,314.8l-9.7-16.5c-.2-.4-.2-.8,0-1.2l9.7-16.7,2.1,1.2-9.3,16.1,9.3,15.9-2.1,1.2Z"/>
      <path class="st0" d="M140.1,312l-2.2-1.1,6.6-13.3-6.6-13.3,2.2-1.1,6.8,13.8c.2.3.2.7,0,1.1l-6.8,13.8Z"/>
    </g>
    <g>
      <path class="st0" d="M343.5,257.5l-12.8-8.6c-.3-.2-.5-.5-.5-.9l-1-15.4,2.4-.2,1,14.8,12.3,8.2-1.3,2Z"/>
      <path class="st0" d="M159,362.8l-1-14.8-12.3-8.2,1.3-2,12.8,8.6c.3.2.5.5.5.9l1,15.4-2.4.2Z"/>
    </g>
  </g>
  <g>
    <g>
      <g>
        <path class="st0" d="M524.4,377.8c-.3,0-.6-.1-.8-.4l-11.5-11.5c-.3-.3-.4-.7-.3-1.2l15.4-57.4c0-.3.3-.6.6-.7.3-.2.6-.2.9-.1l5.8,1.5c.4.1.7.4.8.8l1.2,4.6,4.6-1.2c.4-.1.9,0,1.2.3l3.4,3.4,3.4-3.4c.3-.3.7-.4,1.2-.3l5.8,1.5c.3,0,.6.3.7.6s.2.6.1.9l-15.4,57.4c-.1.4-.4.7-.8.8l-15.7,4.2c-.1,0-.2,0-.3,0ZM514.2,364.7l10.5,10.5,14.4-3.9,14.9-55.6-3.9-1.1-3.7,3.7c-.5.5-1.2.5-1.7,0l-3.7-3.7-5.1,1.4c-.6.2-1.3-.2-1.5-.8l-1.4-5.1-3.9-1.1-14.9,55.6Z"/>
        <path class="st0" d="M562.9,288.9c-.1,0-.2,0-.3,0l-5.8-1.5c-.4-.1-.7-.4-.8-.8l-1.2-4.6-4.6,1.2c-.4.1-.9,0-1.2-.3l-3.4-3.4-3.4,3.4c-.3.3-.7.4-1.2.3l-5.8-1.5c-.6-.2-1-.8-.8-1.5l15.4-57.4c.1-.4.4-.7.8-.8l15.7-4.2c.4-.1.9,0,1.2.3l11.5,11.5c.3.3.4.7.3,1.2l-15.4,57.4c0,.3-.3.6-.6.7-.2.1-.4.2-.6.2ZM558.1,285.1l3.9,1.1,14.9-55.6-10.5-10.5-14.4,3.9-14.9,55.6,3.9,1.1,3.7-3.7c.5-.5,1.2-.5,1.7,0l3.7,3.7,5.1-1.4c.6-.2,1.3.2,1.5.8l1.4,5.1Z"/>
        <path class="st0" d="M503.5,360.8c-.1,0-.2,0-.3,0l-15.7-4.2c-.4-.1-.7-.4-.8-.8l-4.2-15.7c-.1-.4,0-.9.3-1.2l42-42c.5-.5,1.2-.5,1.7,0l4.2,4.2c.3.3.4.7.3,1.2l-1.2,4.6,4.6,1.2c.4.1.7.4.8.8l1.2,4.6,4.6-1.2c.4-.1.9,0,1.2.3l4.2,4.2c.5.5.5,1.2,0,1.7l-42,42c-.2.2-.5.4-.8.4ZM488.8,354.4l14.4,3.9,40.7-40.7-2.9-2.9-5.1,1.4c-.6.2-1.3-.2-1.5-.8l-1.4-5.1-5.1-1.4c-.6-.2-1-.8-.8-1.5l1.4-5.1-2.9-2.9-40.7,40.7,3.9,14.4Z"/>
        <path class="st0" d="M565.5,298.8c-.3,0-.6-.1-.8-.4l-4.2-4.2c-.3-.3-.4-.7-.3-1.2l1.2-4.6-4.6-1.2c-.4-.1-.7-.4-.8-.8l-1.2-4.6-4.6,1.2c-.4.1-.9,0-1.2-.3l-4.2-4.2c-.5-.5-.5-1.2,0-1.7l42-42c.3-.3.7-.4,1.2-.3l15.7,4.2c.4.1.7.4.8.8l4.2,15.7c.1.4,0,.9-.3,1.2l-42,42c-.2.2-.5.4-.8.4ZM562.7,293.1l2.9,2.9,40.7-40.7-3.9-14.4-14.4-3.9-40.7,40.7,2.9,2.9,5.1-1.4c.6-.2,1.3.2,1.5.8l1.4,5.1,5.1,1.4c.6.2,1,.8.8,1.5l-1.4,5.1Z"/>
        <path class="st0" d="M478.2,331.5c-.3,0-.6-.1-.8-.4l-11.5-11.5c-.3-.3-.4-.7-.3-1.2l4.2-15.7c.1-.4.4-.7.8-.8l57.4-15.4c.3,0,.6,0,.9.1.3.2.5.4.6.7l1.5,5.8c.1.4,0,.9-.3,1.2l-3.4,3.4,3.4,3.4c.3.3.4.7.3,1.2l-1.2,4.6,4.6,1.2c.4.1.7.4.8.8l1.5,5.8c.2.6-.2,1.3-.8,1.5l-57.4,15.4c-.1,0-.2,0-.3,0ZM468,318.4l10.5,10.5,55.6-14.9-1.1-3.9-5.1-1.4c-.6-.2-1-.8-.8-1.5l1.4-5.1-3.7-3.7c-.5-.5-.5-1.2,0-1.7l3.7-3.7-1.1-3.9-55.6,14.9-3.9,14.4Z"/>
        <path class="st0" d="M562.9,308.8c-.5,0-1-.4-1.2-.9l-1.5-5.8c-.1-.4,0-.9.3-1.2l3.4-3.4-3.4-3.4c-.3-.3-.4-.7-.3-1.2l1.2-4.6-4.6-1.2c-.4-.1-.7-.4-.8-.8l-1.5-5.8c0-.3,0-.6.1-.9.2-.3.4-.5.7-.6l57.4-15.4c.4-.1.9,0,1.2.3l11.5,11.5c.3.3.4.7.3,1.2l-4.2,15.7c-.1.4-.4.7-.8.8l-57.4,15.4c-.1,0-.2,0-.3,0ZM562.7,302.2l1.1,3.9,55.6-14.9,3.9-14.4-10.5-10.5-55.6,14.9,1.1,3.9,5.1,1.4c.6.2,1,.8.8,1.5l-1.4,5.1,3.7,3.7c.5.5.5,1.2,0,1.7l-3.7,3.7Z"/>
        <path class="st0" d="M528.3,308.8c-.1,0-.2,0-.3,0l-57.4-15.4c-.4-.1-.7-.4-.8-.8l-4.2-15.7c-.1-.4,0-.9.3-1.2l11.5-11.5c.3-.3.7-.4,1.2-.3l57.4,15.4c.6.2,1,.8.8,1.5l-1.5,5.8c-.1.4-.4.7-.8.8l-4.6,1.2,1.2,4.6c.1.4,0,.9-.3,1.2l-3.4,3.4,3.4,3.4c.3.3.4.7.3,1.2l-1.5,5.8c-.1.5-.6.9-1.2.9ZM471.8,291.3l55.6,14.9,1.1-3.9-3.7-3.7c-.5-.5-.5-1.2,0-1.7l3.7-3.7-1.4-5.1c-.2-.6.2-1.3.8-1.5l5.1-1.4,1.1-3.9-55.6-14.9-10.5,10.5,3.9,14.4Z"/>
        <path class="st0" d="M613,331.5c-.1,0-.2,0-.3,0l-57.4-15.4c-.3,0-.6-.3-.7-.6s-.2-.6-.1-.9l1.5-5.8c.1-.4.4-.7.8-.8l4.6-1.2-1.2-4.6c-.1-.4,0-.9.3-1.2l3.4-3.4-3.4-3.4c-.3-.3-.4-.7-.3-1.2l1.5-5.8c0-.3.3-.6.6-.7.3-.2.6-.2.9-.1l57.4,15.4c.4.1.7.4.8.8l4.2,15.7c.1.4,0,.9-.3,1.2l-11.5,11.5c-.2.2-.5.4-.8.4ZM557,314.1l55.6,14.9,10.5-10.5-3.9-14.4-55.6-14.9-1.1,3.9,3.7,3.7c.5.5.5,1.2,0,1.7l-3.7,3.7,1.4,5.1c.2.6-.2,1.3-.8,1.5l-5.1,1.4-1.1,3.9Z"/>
        <path class="st0" d="M525.6,298.8c-.3,0-.6-.1-.8-.4l-42-42c-.3-.3-.4-.7-.3-1.2l4.2-15.7c.1-.4.4-.7.8-.8l15.7-4.2c.4-.1.9,0,1.2.3l42,42c.5.5.5,1.2,0,1.7l-4.2,4.2c-.3.3-.7.4-1.2.3l-4.6-1.2-1.2,4.6c-.1.4-.4.7-.8.8l-4.6,1.2,1.2,4.6c.1.4,0,.9-.3,1.2l-4.2,4.2c-.2.2-.5.4-.8.4ZM484.9,255.2l40.7,40.7,2.9-2.9-1.4-5.1c-.2-.6.2-1.3.8-1.5l5.1-1.4,1.4-5.1c.2-.6.8-1,1.5-.8l5.1,1.4,2.9-2.9-40.7-40.7-14.4,3.9-3.9,14.4Z"/>
        <path class="st0" d="M587.6,360.8c-.3,0-.6-.1-.8-.4l-42-42c-.2-.2-.4-.5-.4-.8s.1-.6.4-.8l4.2-4.2c.3-.3.7-.4,1.2-.3l4.6,1.2,1.2-4.6c.1-.4.4-.7.8-.8l4.6-1.2-1.2-4.6c-.1-.4,0-.9.3-1.2l4.2-4.2c.5-.5,1.2-.5,1.7,0l42,42c.3.3.4.7.3,1.2l-4.2,15.7c-.1.4-.4.7-.8.8l-15.7,4.2c-.1,0-.2,0-.3,0ZM547.3,317.6l40.7,40.7,14.4-3.9,3.9-14.4-40.7-40.7-2.9,2.9,1.4,5.1c.2.6-.2,1.3-.8,1.5l-5.1,1.4-1.4,5.1c-.2.6-.8,1-1.5.8l-5.1-1.4-2.9,2.9Z"/>
        <path class="st0" d="M528.3,288.9c-.2,0-.4,0-.6-.2-.3-.2-.5-.4-.6-.7l-15.4-57.4c-.1-.4,0-.9.3-1.2l11.5-11.5c.3-.3.7-.4,1.2-.3l15.7,4.2c.4.1.7.4.8.8l15.4,57.4c.2.6-.2,1.3-.8,1.5l-5.8,1.5c-.4.1-.9,0-1.2-.3l-3.4-3.4-3.4,3.4c-.3.3-.7.4-1.2.3l-4.6-1.2-1.2,4.6c-.1.4-.4.7-.8.8l-5.8,1.5c-.1,0-.2,0-.3,0ZM514.2,230.6l14.9,55.6,3.9-1.1,1.4-5.1c.2-.6.8-1,1.5-.8l5.1,1.4,3.7-3.7c.5-.5,1.2-.5,1.7,0l3.7,3.7,3.9-1.1-14.9-55.6-14.4-3.9-10.5,10.5Z"/>
        <path class="st0" d="M566.7,377.8c-.1,0-.2,0-.3,0l-15.7-4.2c-.4-.1-.7-.4-.8-.8l-15.4-57.4c0-.3,0-.6.1-.9s.4-.5.7-.6l5.8-1.5c.4-.1.9,0,1.2.3l3.4,3.4,3.4-3.4c.3-.3.7-.4,1.2-.3l4.6,1.2,1.2-4.6c.1-.4.4-.7.8-.8l5.8-1.5c.3,0,.6,0,.9.1.3.2.5.4.6.7l15.4,57.4c.1.4,0,.9-.3,1.2l-11.5,11.5c-.2.2-.5.4-.8.4ZM552,371.4l14.4,3.9,10.5-10.5-14.9-55.6-3.9,1.1-1.4,5.1c-.2.6-.8,1-1.5.8l-5.1-1.4-3.7,3.7c-.5.5-1.2.5-1.7,0l-3.7-3.7-3.9,1.1,14.9,55.6Z"/>
        <path class="st0" d="M545.6,318.8c-.3,0-.6-.1-.8-.4l-3.7-3.7-5.1,1.4c-.6.2-1.3-.2-1.5-.8l-1.4-5.1-5.1-1.4c-.6-.2-1-.8-.8-1.5l1.4-5.1-3.7-3.7c-.5-.5-.5-1.2,0-1.7l3.7-3.7-1.4-5.1c0-.3,0-.6.1-.9s.4-.5.7-.6l5.1-1.4,1.4-5.1c0-.3.3-.6.6-.7.3-.2.6-.2.9-.1l5.1,1.4,3.7-3.7c.5-.5,1.2-.5,1.7,0l3.7,3.7,5.1-1.4c.6-.2,1.3.2,1.5.8l1.4,5.1,5.1,1.4c.3,0,.6.3.7.6s.2.6.1.9l-1.4,5.1,3.7,3.7c.2.2.4.5.4.8s-.1.6-.4.8l-3.7,3.7,1.4,5.1c.2.6-.2,1.3-.8,1.5l-5.1,1.4-1.4,5.1c-.2.6-.8,1-1.5.8l-5.1-1.4-3.7,3.7c-.2.2-.5.4-.8.4ZM541.3,312.2c.3,0,.6.1.8.4l3.4,3.4,3.4-3.4c.3-.3.7-.4,1.2-.3l4.6,1.2,1.2-4.6c.1-.4.4-.7.8-.8l4.6-1.2-1.2-4.6c-.1-.4,0-.9.3-1.2l3.4-3.4-3.4-3.4c-.3-.3-.4-.7-.3-1.2l1.2-4.6-4.6-1.2c-.4-.1-.7-.4-.8-.8l-1.2-4.6-4.6,1.2c-.4.1-.9,0-1.2-.3l-3.4-3.4-3.4,3.4c-.3.3-.7.4-1.2.3l-4.6-1.2-1.2,4.6c-.1.4-.4.7-.8.8l-4.6,1.2,1.2,4.6c.1.4,0,.9-.3,1.2l-3.4,3.4,3.4,3.4c.3.3.4.7.3,1.2l-1.2,4.6,4.6,1.2c.4.1.7.4.8.8l1.2,4.6,4.6-1.2c.1,0,.2,0,.3,0Z"/>
      </g>
      <g>
        <path class="st0" d="M575.2,409.3c-.1,0-.2,0-.3,0l-15.7-4.2c-.4-.1-.7-.4-.8-.8l-4.2-15.7c-.1-.4,0-.9.3-1.2l11.5-11.5c.3-.3.7-.4,1.2-.3l15.7,4.2c.4.1.7.4.8.8l4.2,15.7c.1.4,0,.9-.3,1.2l-11.5,11.5c-.2.2-.5.4-.8.4ZM560.4,402.9l14.4,3.9,10.5-10.5-3.9-14.4-14.4-3.9-10.5,10.5,3.9,14.4Z"/>
        <path class="st0" d="M524.4,219.9c-.1,0-.2,0-.3,0l-15.7-4.2c-.4-.1-.7-.4-.8-.8l-4.2-15.7c0-.2,0-.5,0-.7l5.2-15.3c.2-.6.8-.9,1.4-.8l19.4,5.2c.4.1.7.4.8.7l6.9,18.6c.2.4,0,.9-.3,1.3l-11.5,11.5c-.2.2-.5.4-.8.4ZM509.6,213.5l14.4,3.9,10.5-10.5-6.5-17.3-17.7-4.8-4.7,13.9,3.9,14.7Z"/>
      </g>
      <g>
        <path class="st0" d="M509.6,413.1c-.5,0-1-.3-1.1-.8l-5.2-15.3c0-.2,0-.5,0-.7l4.2-15.7c.1-.4.4-.7.8-.8l15.7-4.2c.4-.1.9,0,1.2.3l11.5,11.5c.3.3.4.8.3,1.3l-6.9,18.6c-.1.4-.4.6-.8.7l-19.4,5.2c-.1,0-.2,0-.3,0ZM505.7,396.5l4.7,13.9,17.7-4.8,6.5-17.3-10.5-10.5-14.4,3.9-3.9,14.7Z"/>
        <path class="st0" d="M566.7,219.9c-.3,0-.6-.1-.8-.4l-11.5-11.5c-.3-.3-.4-.7-.3-1.2l4.2-15.7c.1-.4.4-.7.8-.8l15.7-4.2c.4-.1.9,0,1.2.3l11.5,11.5c.3.3.4.7.3,1.2l-4.2,15.7c-.1.4-.4.7-.8.8l-15.7,4.2c-.1,0-.2,0-.3,0ZM556.5,206.8l10.5,10.5,14.4-3.9,3.9-14.4-10.5-10.5-14.4,3.9-3.9,14.4Z"/>
      </g>
      <g>
        <path class="st0" d="M481.3,383.6l-1.7-1.7,11-11-3.9-14.4-14.4-3.9-11,11-1.7-1.7,11.5-11.5c.3-.3.7-.4,1.2-.3l15.7,4.2c.4.1.7.4.8.8l4.2,15.7c.1.4,0,.9-.3,1.2l-11.5,11.5Z"/>
        <path class="st0" d="M619.1,245.3c-.1,0-.2,0-.3,0l-15.7-4.2c-.4-.1-.7-.4-.8-.8l-4.2-15.7c-.1-.4,0-.9.3-1.2l11.5-11.5,1.7,1.7-11,11,3.9,14.4,14.4,3.9,11-11,1.7,1.7-11.5,11.5c-.2.2-.5.4-.8.4Z"/>
      </g>
      <g>
        <path class="st0" d="M446.7,340c-.1,0-.3,0-.4,0l-15.3-5.2c-.6-.2-.9-.8-.8-1.4l5.2-19.4c.1-.4.4-.7.7-.8l18.6-6.9c.4-.2.9,0,1.3.3l11.5,11.5c.3.3.4.7.3,1.2l-4.2,15.7c-.1.4-.4.7-.8.8l-15.7,4.2c-.1,0-.2,0-.3,0ZM432.8,332.8l13.9,4.7,14.7-3.9,3.9-14.4-10.5-10.5-17.3,6.4-4.8,17.7Z"/>
        <path class="st0" d="M636,289.2c-.3,0-.6-.1-.8-.4l-11.5-11.5c-.3-.3-.4-.7-.3-1.2l4.2-15.7c.1-.4.4-.7.8-.8l15.7-4.2c.4-.1.9,0,1.2.3l11.5,11.5c.3.3.4.7.3,1.2l-4.2,15.7c-.1.4-.4.7-.8.8l-15.7,4.2c-.1,0-.2,0-.3,0ZM625.8,276.1l10.5,10.5,14.4-3.9,3.9-14.4-10.5-10.5-14.4,3.9-3.9,14.4Z"/>
      </g>
      <g>
        <path class="st0" d="M455.1,289.2c-.1,0-.3,0-.4,0l-18.6-7.1c-.4-.1-.6-.4-.7-.8l-5.2-19.2c-.2-.6.2-1.2.8-1.5l15.3-5.2c.2,0,.5,0,.7,0l15.7,4.2c.4.1.7.4.8.8l4.2,15.7c.1.4,0,.9-.3,1.2l-11.5,11.5c-.2.2-.5.4-.8.4ZM437.5,280l17.3,6.6,10.5-10.5-3.9-14.4-14.7-3.9-13.9,4.7,4.8,17.5Z"/>
        <path class="st0" d="M644.5,340c-.1,0-.2,0-.3,0l-15.7-4.2c-.4-.1-.7-.4-.8-.8l-4.2-15.7c-.1-.4,0-.9.3-1.2l11.5-11.5c.3-.3.7-.4,1.2-.3l15.7,4.2c.4.1.7.4.8.8l4.2,15.7c.1.4,0,.9-.3,1.2l-11.5,11.5c-.2.2-.5.4-.8.4ZM629.7,333.6l14.4,3.9,10.5-10.5-3.9-14.4-14.4-3.9-10.5,10.5,3.9,14.4Z"/>
      </g>
      <g>
        <path class="st0" d="M472,245.3c-.3,0-.6-.1-.8-.4l-11.5-11.5,1.7-1.7,11,11,14.4-3.9,3.9-14.4-11-11,1.7-1.7,11.5,11.5c.3.3.4.7.3,1.2l-4.2,15.7c-.1.4-.4.7-.8.8l-15.7,4.2c-.1,0-.2,0-.3,0Z"/>
        <path class="st0" d="M609.8,383.6l-11.5-11.5c-.3-.3-.4-.7-.3-1.2l4.2-15.7c.1-.4.4-.7.8-.8l15.7-4.2c.4-.1.9,0,1.2.3l11.5,11.5-1.7,1.7-11-11-14.4,3.9-3.9,14.4,11,11-1.7,1.7Z"/>
      </g>
    </g>
    <g>
      <path class="st0" d="M587.7,397.2l-2-1.3,8.6-12.8c.2-.3.5-.5.9-.5l15.4-1,.2,2.4-14.8,1-8.2,12.3Z"/>
      <path class="st0" d="M480.6,213.8l-.2-2.4,14.8-1,8.2-12.3,2,1.3-8.6,12.8c-.2.3-.5.5-.9.5l-15.4,1Z"/>
    </g>
    <g>
      <path class="st0" d="M529.6,407.7l-1.2-2.1,16.6-9.7c.3-.2.8-.2,1.1,0l13.8,6.8-1.1,2.2-13.3-6.6-16,9.3Z"/>
      <path class="st0" d="M545.6,199.5c-.2,0-.4,0-.6-.2l-16.6-9.7,1.2-2.1,16,9.3,13.3-6.6,1.1,2.2-13.8,6.8c-.2,0-.3.1-.5.1Z"/>
    </g>
    <g>
      <path class="st0" d="M503.5,397.2l-8.2-12.3-14.8-1,.2-2.4,15.4,1c.4,0,.7.2.9.5l8.6,12.8-2,1.3Z"/>
      <path class="st0" d="M610.6,213.8l-15.4-1c-.4,0-.7-.2-.9-.5l-8.6-12.8,2-1.3,8.2,12.3,14.8,1-.2,2.4Z"/>
    </g>
    <g>
      <path class="st0" d="M459.3,362.8l-1-14.8-12.3-8.2,1.3-2,12.8,8.6c.3.2.5.5.5.9l1,15.4-2.4.2Z"/>
      <path class="st0" d="M643.8,257.5l-12.8-8.6c-.3-.2-.5-.5-.5-.9l-1-15.4,2.4-.2,1,14.8,12.3,8.2-1.3,2Z"/>
    </g>
    <g>
      <path class="st0" d="M437.6,314.8l-2.1-1.2,9.3-15.9-9.3-16.1,2.1-1.2,9.7,16.7c.2.4.2.8,0,1.2l-9.7,16.5Z"/>
      <path class="st0" d="M650.7,312l-6.8-13.8c-.2-.3-.2-.7,0-1.1l6.8-13.8,2.2,1.1-6.6,13.3,6.6,13.3-2.2,1.1Z"/>
    </g>
    <g>
      <path class="st0" d="M447.3,257.5l-1.3-2,12.3-8.2,1-14.8,2.4.2-1,15.4c0,.4-.2.7-.5.9l-12.8,8.6Z"/>
      <path class="st0" d="M631.8,362.8l-2.4-.2,1-15.4c0-.4.2-.7.5-.9l12.8-8.6,1.3,2-12.3,8.2-1,14.8Z"/>
    </g>
  </g>
  <g>
    <g>
      <g>
        <path class="st0" d="M412.7,459c-.5,0-1-.4-1.2-.9l-1.5-5.8c-.1-.4,0-.9.3-1.2l3.4-3.4-3.4-3.4c-.3-.3-.4-.7-.3-1.2l1.2-4.6-4.6-1.2c-.4-.1-.7-.4-.8-.8l-1.5-5.8c-.2-.6.2-1.3.8-1.5l57.4-15.4c.4-.1.9,0,1.2.3l11.5,11.5c.3.3.4.7.3,1.2l-4.2,15.7c-.1.4-.4.7-.8.8l-57.4,15.4c-.1,0-.2,0-.3,0ZM412.5,452.4l1.1,3.9,55.6-14.9,3.9-14.4-10.5-10.5-55.6,14.9,1.1,3.9,5.1,1.4c.6.2,1,.8.8,1.5l-1.4,5.1,3.7,3.7c.2.2.4.5.4.8s-.1.6-.4.8l-3.7,3.7Z"/>
        <path class="st0" d="M328,481.7c-.3,0-.6-.1-.8-.4l-11.5-11.5c-.3-.3-.4-.7-.3-1.2l4.2-15.7c.1-.4.4-.7.8-.8l57.4-15.4c.6-.2,1.3.2,1.5.8l1.5,5.8c.1.4,0,.9-.3,1.2l-3.4,3.4,3.4,3.4c.3.3.4.7.3,1.2l-1.2,4.6,4.6,1.2c.4.1.7.4.8.8l1.5,5.8c0,.3,0,.6-.1.9-.2.3-.4.5-.7.6l-57.4,15.4c-.1,0-.2,0-.3,0ZM317.8,468.6l10.5,10.5,55.6-14.9-1.1-3.9-5.1-1.4c-.3,0-.6-.3-.7-.6-.2-.3-.2-.6-.1-.9l1.4-5.1-3.7-3.7c-.5-.5-.5-1.2,0-1.7l3.7-3.7-1.1-3.9-55.6,14.9-3.9,14.4Z"/>
        <path class="st0" d="M415.4,449c-.3,0-.6-.1-.8-.4l-4.2-4.2c-.3-.3-.4-.7-.3-1.2l1.2-4.6-4.6-1.2c-.4-.1-.7-.4-.8-.8l-1.2-4.6-4.6,1.2c-.4.1-.9,0-1.2-.3l-4.2-4.2c-.5-.5-.5-1.2,0-1.7l42-42c.3-.3.7-.4,1.2-.3l15.7,4.2c.4.1.7.4.8.8l4.2,15.7c.1.4,0,.9-.3,1.2l-42,42c-.2.2-.5.4-.8.4ZM412.5,443.2l2.9,2.9,40.7-40.7-3.9-14.4-14.4-3.9-40.7,40.7,2.9,2.9,5.1-1.4c.6-.2,1.3.2,1.5.8l1.4,5.1,5.1,1.4c.6.2,1,.8.8,1.5l-1.4,5.1Z"/>
        <path class="st0" d="M353.4,511c-.1,0-.2,0-.3,0l-15.7-4.2c-.4-.1-.7-.4-.8-.8l-4.2-15.7c-.1-.4,0-.9.3-1.2l42-42c.5-.5,1.2-.5,1.7,0l4.2,4.2c.3.3.4.7.3,1.2l-1.2,4.6,4.6,1.2c.4.1.7.4.8.8l1.2,4.6,4.6-1.2c.4-.1.9,0,1.2.3l4.2,4.2c.5.5.5,1.2,0,1.7l-42,42c-.2.2-.5.4-.8.4ZM338.6,504.6l14.4,3.9,40.7-40.7-2.9-2.9-5.1,1.4c-.6.2-1.3-.2-1.5-.8l-1.4-5.1-5.1-1.4c-.6-.2-1-.8-.8-1.5l1.4-5.1-2.9-2.9-40.7,40.7,3.9,14.4Z"/>
        <path class="st0" d="M412.7,439c-.1,0-.2,0-.3,0l-5.8-1.5c-.4-.1-.7-.4-.8-.8l-1.2-4.6-4.6,1.2c-.4.1-.9,0-1.2-.3l-3.4-3.4-3.4,3.4c-.3.3-.7.4-1.2.3l-5.8-1.5c-.3,0-.6-.3-.7-.6-.2-.3-.2-.6-.1-.9l15.4-57.4c.1-.4.4-.7.8-.8l15.7-4.2c.4-.1.9,0,1.2.3l11.5,11.5c.3.3.4.7.3,1.2l-15.4,57.4c-.1.5-.6.9-1.2.9ZM407.9,435.3l3.9,1.1,14.9-55.6-10.5-10.5-14.4,3.9-14.9,55.6,3.9,1.1,3.7-3.7c.5-.5,1.2-.5,1.7,0l3.7,3.7,5.1-1.4c.6-.2,1.3.2,1.5.8l1.4,5.1Z"/>
        <path class="st0" d="M374.3,527.9c-.3,0-.6-.1-.8-.4l-11.5-11.5c-.3-.3-.4-.7-.3-1.2l15.4-57.4c.2-.6.8-1,1.5-.8l5.8,1.5c.4.1.7.4.8.8l1.2,4.6,4.6-1.2c.4-.1.9,0,1.2.3l3.4,3.4,3.4-3.4c.3-.3.7-.4,1.2-.3l5.8,1.5c.3,0,.6.3.7.6s.2.6.1.9l-15.4,57.4c-.1.4-.4.7-.8.8l-15.7,4.2c-.1,0-.2,0-.3,0ZM364.1,514.9l10.5,10.5,14.4-3.9,14.9-55.6-3.9-1.1-3.7,3.7c-.5.5-1.2.5-1.7,0l-3.7-3.7-5.1,1.4c-.6.2-1.3-.2-1.5-.8l-1.4-5.1-3.9-1.1-14.9,55.6Z"/>
        <path class="st0" d="M378.1,439c-.5,0-1-.4-1.2-.9l-15.4-57.4c-.1-.4,0-.9.3-1.2l11.5-11.5c.3-.3.7-.4,1.2-.3l15.7,4.2c.4.1.7.4.8.8l15.4,57.4c0,.3,0,.6-.1.9s-.4.5-.7.6l-5.8,1.5c-.4.1-.9,0-1.2-.3l-3.4-3.4-3.4,3.4c-.3.3-.7.4-1.2.3l-4.6-1.2-1.2,4.6c-.1.4-.4.7-.8.8l-5.8,1.5c-.1,0-.2,0-.3,0ZM364.1,380.7l14.9,55.6,3.9-1.1,1.4-5.1c.2-.6.8-1,1.5-.8l5.1,1.4,3.7-3.7c.5-.5,1.2-.5,1.7,0l3.7,3.7,3.9-1.1-14.9-55.6-14.4-3.9-10.5,10.5Z"/>
        <path class="st0" d="M416.6,527.9c-.1,0-.2,0-.3,0l-15.7-4.2c-.4-.1-.7-.4-.8-.8l-15.4-57.4c-.2-.6.2-1.3.8-1.5l5.8-1.5c.4-.1.9,0,1.2.3l3.4,3.4,3.4-3.4c.3-.3.7-.4,1.2-.3l4.6,1.2,1.2-4.6c.1-.4.4-.7.8-.8l5.8-1.5c.6-.2,1.3.2,1.5.8l15.4,57.4c.1.4,0,.9-.3,1.2l-11.5,11.5c-.2.2-.5.4-.8.4ZM401.8,521.5l14.4,3.9,10.5-10.5-14.9-55.6-3.9,1.1-1.4,5.1c-.2.6-.8,1-1.5.8l-5.1-1.4-3.7,3.7c-.5.5-1.2.5-1.7,0l-3.7-3.7-3.9,1.1,14.9,55.6Z"/>
        <path class="st0" d="M375.4,449c-.3,0-.6-.1-.8-.4l-42-42c-.3-.3-.4-.7-.3-1.2l4.2-15.7c.1-.4.4-.7.8-.8l15.7-4.2c.4-.1.9,0,1.2.3l42,42c.5.5.5,1.2,0,1.7l-4.2,4.2c-.3.3-.7.4-1.2.3l-4.6-1.2-1.2,4.6c-.1.4-.4.7-.8.8l-4.6,1.2,1.2,4.6c.1.4,0,.9-.3,1.2l-4.2,4.2c-.2.2-.5.4-.8.4ZM334.7,405.4l40.7,40.7,2.9-2.9-1.4-5.1c-.2-.6.2-1.3.8-1.5l5.1-1.4,1.4-5.1c.2-.6.8-1,1.5-.8l5.1,1.4,2.9-2.9-40.7-40.7-14.4,3.9-3.9,14.4Z"/>
        <path class="st0" d="M437.5,511c-.3,0-.6-.1-.8-.4l-42-42c-.5-.5-.5-1.2,0-1.7l4.2-4.2c.3-.3.7-.4,1.2-.3l4.6,1.2,1.2-4.6c.1-.4.4-.7.8-.8l4.6-1.2-1.2-4.6c-.1-.4,0-.9.3-1.2l4.2-4.2c.5-.5,1.2-.5,1.7,0l42,42c.3.3.4.7.3,1.2l-4.2,15.7c-.1.4-.4.7-.8.8l-15.7,4.2c-.1,0-.2,0-.3,0ZM397.1,467.8l40.7,40.7,14.4-3.9,3.9-14.4-40.7-40.7-2.9,2.9,1.4,5.1c.2.6-.2,1.3-.8,1.5l-5.1,1.4-1.4,5.1c-.2.6-.8,1-1.5.8l-5.1-1.4-2.9,2.9Z"/>
        <path class="st0" d="M378.1,459c-.1,0-.2,0-.3,0l-57.4-15.4c-.4-.1-.7-.4-.8-.8l-4.2-15.7c-.1-.4,0-.9.3-1.2l11.5-11.5c.3-.3.7-.4,1.2-.3l57.4,15.4c.3,0,.6.3.7.6.2.3.2.6.1.9l-1.5,5.8c-.1.4-.4.7-.8.8l-4.6,1.2,1.2,4.6c.1.4,0,.9-.3,1.2l-3.4,3.4,3.4,3.4c.3.3.4.7.3,1.2l-1.5,5.8c-.1.5-.6.9-1.2.9ZM321.7,441.4l55.6,14.9,1.1-3.9-3.7-3.7c-.5-.5-.5-1.2,0-1.7l3.7-3.7-1.4-5.1c0-.3,0-.6.1-.9.2-.3.4-.5.7-.6l5.1-1.4,1.1-3.9-55.6-14.9-10.5,10.5,3.9,14.4Z"/>
        <path class="st0" d="M462.8,481.7c-.1,0-.2,0-.3,0l-57.4-15.4c-.6-.2-1-.8-.8-1.5l1.5-5.8c.1-.4.4-.7.8-.8l4.6-1.2-1.2-4.6c-.1-.4,0-.9.3-1.2l3.4-3.4-3.4-3.4c-.3-.3-.4-.7-.3-1.2l1.5-5.8c.2-.6.8-1,1.5-.8l57.4,15.4c.4.1.7.4.8.8l4.2,15.7c.1.4,0,.9-.3,1.2l-11.5,11.5c-.2.2-.5.4-.8.4ZM406.9,464.2l55.6,14.9,10.5-10.5-3.9-14.4-55.6-14.9-1.1,3.9,3.7,3.7c.2.2.4.5.4.8s-.1.6-.4.8l-3.7,3.7,1.4,5.1c.2.6-.2,1.3-.8,1.5l-5.1,1.4-1.1,3.9Z"/>
        <path class="st0" d="M395.4,469c-.3,0-.6-.1-.8-.4l-3.7-3.7-5.1,1.4c-.6.2-1.3-.2-1.5-.8l-1.4-5.1-5.1-1.4c-.6-.2-1-.8-.8-1.5l1.4-5.1-3.7-3.7c-.5-.5-.5-1.2,0-1.7l3.7-3.7-1.4-5.1c-.2-.6.2-1.3.8-1.5l5.1-1.4,1.4-5.1c.2-.6.8-1,1.5-.8l5.1,1.4,3.7-3.7c.5-.5,1.2-.5,1.7,0l3.7,3.7,5.1-1.4c.3,0,.6,0,.9.1.3.2.5.4.6.7l1.4,5.1,5.1,1.4c.6.2,1,.8.8,1.5l-1.4,5.1,3.7,3.7c.2.2.4.5.4.8s-.1.6-.4.8l-3.7,3.7,1.4,5.1c0,.3,0,.6-.1.9s-.4.5-.7.6l-5.1,1.4-1.4,5.1c-.2.6-.8,1-1.5.8l-5.1-1.4-3.7,3.7c-.2.2-.5.4-.8.4ZM391.2,462.3c.3,0,.6.1.8.4l3.4,3.4,3.4-3.4c.3-.3.7-.4,1.2-.3l4.6,1.2,1.2-4.6c.1-.4.4-.7.8-.8l4.6-1.2-1.2-4.6c-.1-.4,0-.9.3-1.2l3.4-3.4-3.4-3.4c-.3-.3-.4-.7-.3-1.2l1.2-4.6-4.6-1.2c-.4-.1-.7-.4-.8-.8l-1.2-4.6-4.6,1.2c-.4.1-.9,0-1.2-.3l-3.4-3.4-3.4,3.4c-.3.3-.7.4-1.2.3l-4.6-1.2-1.2,4.6c-.1.4-.4.7-.8.8l-4.6,1.2,1.2,4.6c.1.4,0,.9-.3,1.2l-3.4,3.4,3.4,3.4c.3.3.4.7.3,1.2l-1.2,4.6,4.6,1.2c.4.1.7.4.8.8l1.2,4.6,4.6-1.2c.1,0,.2,0,.3,0Z"/>
      </g>
      <g>
        <path class="st0" d="M494.3,490.1c-.1,0-.2,0-.3,0l-15.7-4.2c-.4-.1-.7-.4-.8-.8l-4.2-15.7c-.1-.4,0-.9.3-1.2l11.5-11.5c.3-.3.7-.4,1.2-.3l15.7,4.2c.4.1.7.4.8.8l4.2,15.7c.1.4,0,.9-.3,1.2l-11.5,11.5c-.2.2-.5.4-.8.4ZM479.5,483.7l14.4,3.9,10.5-10.5-3.9-14.4-14.4-3.9-10.5,10.5,3.9,14.4Z"/>
        <path class="st0" d="M304.9,439.4c-.1,0-.3,0-.4,0l-18.6-7.1c-.4-.1-.6-.4-.7-.8l-5.2-19.2c-.2-.6.2-1.2.8-1.5l15.3-5.2c.2,0,.5,0,.7,0l15.7,4.2c.4.1.7.4.8.8l4.2,15.7c.1.4,0,.9-.3,1.2l-11.5,11.5c-.2.2-.5.4-.8.4ZM287.4,430.2l17.3,6.6,10.5-10.5-3.9-14.4-14.7-3.9-13.9,4.7,4.7,17.5Z"/>
      </g>
      <g>
        <path class="st0" d="M485.9,439.4c-.3,0-.6-.1-.8-.4l-11.5-11.5c-.3-.3-.4-.7-.3-1.2l4.2-15.7c.1-.4.4-.7.8-.8l15.7-4.2c.2,0,.5,0,.7,0l15.3,5.2c.6.2.9.8.8,1.4l-5.2,19.3c-.1.4-.4.7-.7.8l-18.6,7c-.1,0-.3,0-.4,0ZM475.7,426.3l10.5,10.5,17.3-6.5,4.7-17.6-13.9-4.7-14.7,3.9-3.9,14.4Z"/>
        <path class="st0" d="M296.5,490.1c-.3,0-.6-.1-.8-.4l-11.5-11.5c-.3-.3-.4-.7-.3-1.2l4.2-15.7c.1-.4.4-.7.8-.8l15.7-4.2c.4-.1.9,0,1.2.3l11.5,11.5c.3.3.4.7.3,1.2l-4.2,15.7c-.1.4-.4.7-.8.8l-15.7,4.2c-.1,0-.2,0-.3,0ZM286.3,477l10.5,10.5,14.4-3.9,3.9-14.4-10.5-10.5-14.4,3.9-3.9,14.4Z"/>
      </g>
      <g>
        <path class="st0" d="M468.9,395.4c-.1,0-.2,0-.3,0l-15.7-4.2c-.4-.1-.7-.4-.8-.8l-4.2-15.7c-.1-.4,0-.9.3-1.2l11.5-11.5,1.7,1.7-11,11,3.9,14.4,14.4,3.9,11-11,1.7,1.7-11.5,11.5c-.2.2-.5.4-.8.4Z"/>
        <path class="st0" d="M331.2,533.7l-1.7-1.7,11-11-3.9-14.4-14.4-3.9-11,11-1.7-1.7,11.5-11.5c.3-.3.7-.4,1.2-.3l15.7,4.2c.4.1.7.4.8.8l4.2,15.7c.1.4,0,.9-.3,1.2l-11.5,11.5Z"/>
      </g>
      <g>
        <path class="st0" d="M416.6,370.1c-.3,0-.6-.1-.8-.4l-11.5-11.5c-.3-.3-.4-.8-.3-1.3l6.9-18.6c.1-.4.4-.6.8-.7l19.4-5.2c.6-.2,1.2.2,1.4.8l5.2,15.3c0,.2,0,.5,0,.7l-4.2,15.7c-.1.4-.4.7-.8.8l-15.7,4.2c-.1,0-.2,0-.3,0ZM406.4,357l10.5,10.5,14.4-3.9,3.9-14.7-4.7-13.9-17.7,4.8-6.4,17.3Z"/>
        <path class="st0" d="M365.8,559.4c-.3,0-.6-.1-.8-.4l-11.5-11.5c-.3-.3-.4-.7-.3-1.2l4.2-15.7c.1-.4.4-.7.8-.8l15.7-4.2c.4-.1.9,0,1.2.3l11.5,11.5c.3.3.4.7.3,1.2l-4.2,15.7c-.1.4-.4.7-.8.8l-15.7,4.2c-.1,0-.2,0-.3,0ZM355.6,546.3l10.5,10.5,14.4-3.9,3.9-14.4-10.5-10.5-14.4,3.9-3.9,14.4Z"/>
      </g>
      <g>
        <path class="st0" d="M374.3,370.1c-.1,0-.2,0-.3,0l-15.7-4.2c-.4-.1-.7-.4-.8-.8l-4.2-15.7c0-.2,0-.5,0-.7l5.2-15.3c.2-.6.8-.9,1.5-.8l19.2,5.2c.4.1.7.4.8.7l7.1,18.6c.2.4,0,.9-.3,1.3l-11.5,11.5c-.2.2-.5.4-.8.4ZM359.5,363.7l14.4,3.9,10.5-10.5-6.6-17.3-17.5-4.8-4.7,13.9,3.9,14.7Z"/>
        <path class="st0" d="M425,559.4c-.1,0-.2,0-.3,0l-15.7-4.2c-.4-.1-.7-.4-.8-.8l-4.2-15.7c-.1-.4,0-.9.3-1.2l11.5-11.5c.3-.3.7-.4,1.2-.3l15.7,4.2c.4.1.7.4.8.8l4.2,15.7c.1.4,0,.9-.3,1.2l-11.5,11.5c-.2.2-.5.4-.8.4ZM410.2,553l14.4,3.9,10.5-10.5-3.9-14.4-14.4-3.9-10.5,10.5,3.9,14.4Z"/>
      </g>
      <g>
        <path class="st0" d="M321.9,395.4c-.3,0-.6-.1-.8-.4l-11.5-11.5,1.7-1.7,11,11,14.4-3.9,3.9-14.4-11-11,1.7-1.7,11.5,11.5c.3.3.4.7.3,1.2l-4.2,15.7c-.1.4-.4.7-.8.8l-15.7,4.2c-.1,0-.2,0-.3,0Z"/>
        <path class="st0" d="M459.7,533.7l-11.5-11.5c-.3-.3-.4-.7-.3-1.2l4.2-15.7c.1-.4.4-.7.8-.8l15.7-4.2c.4-.1.9,0,1.2.3l11.5,11.5-1.7,1.7-11-11-14.4,3.9-3.9,14.4,11,11-1.7,1.7Z"/>
      </g>
    </g>
    <g>
      <path class="st0" d="M481.7,513l-2.4-.2,1-15.4c0-.4.2-.7.5-.9l12.8-8.6,1.3,2-12.3,8.2-1,14.8Z"/>
      <path class="st0" d="M297.2,407.7l-1.3-2,12.3-8.2,1-14.8,2.4.2-1,15.4c0,.4-.2.7-.5.9l-12.8,8.6Z"/>
    </g>
    <g>
      <path class="st0" d="M500.5,462.2l-6.8-13.8c-.2-.4-.2-.8,0-1.1l9.7-16.6,2.1,1.2-9.3,16.1,6.6,13.3-2.2,1.1Z"/>
      <path class="st0" d="M290.3,462.2l-2.2-1.1,6.6-13.3-9.3-16.2,2.1-1.2,9.7,16.7c.2.3.2.8,0,1.1l-6.8,13.8Z"/>
    </g>
    <g>
      <path class="st0" d="M493.7,407.7l-12.8-8.6c-.3-.2-.5-.5-.5-.9l-1-15.4,2.4-.2,1,14.8,12.3,8.2-1.3,2Z"/>
      <path class="st0" d="M309.1,513l-1-14.8-12.3-8.2,1.3-2,12.8,8.6c.3.2.5.5.5.9l1,15.4-2.4.2Z"/>
    </g>
    <g>
      <path class="st0" d="M460.4,363.9l-15.4-1c-.4,0-.7-.2-.9-.5l-8.6-12.8,2-1.3,8.2,12.3,14.8,1-.2,2.4Z"/>
      <path class="st0" d="M353.3,547.4l-8.2-12.3-14.8-1,.2-2.4,15.4,1c.4,0,.7.2.9.5l8.6,12.8-2,1.3Z"/>
    </g>
    <g>
      <path class="st0" d="M395.4,349.6c-.2,0-.4,0-.6-.2l-16.7-9.7,1.2-2.1,16.1,9.3,15.9-9.3,1.2,2.1-16.5,9.7c-.2.1-.4.2-.6.2Z"/>
      <path class="st0" d="M408.7,555.1l-13.3-6.6-13.3,6.6-1.1-2.2,13.8-6.8c.3-.2.7-.2,1.1,0l13.8,6.8-1.1,2.2Z"/>
    </g>
    <g>
      <path class="st0" d="M330.4,363.9l-.2-2.4,14.8-1,8.2-12.3,2,1.3-8.6,12.8c-.2.3-.5.5-.9.5l-15.4,1Z"/>
      <path class="st0" d="M437.5,547.4l-2-1.3,8.6-12.8c.2-.3.5-.5.9-.5l15.4-1,.2,2.4-14.8,1-8.2,12.3Z"/>
    </g>
  </g>
  <g>
    <g>
      <g>
        <path class="st0" d="M462.8,181.4c-.1,0-.2,0-.3,0l-57.4-15.4c-.6-.2-1-.8-.8-1.5l1.5-5.8c.1-.4.4-.7.8-.8l4.6-1.2-1.2-4.6c-.1-.4,0-.9.3-1.2l3.4-3.4-3.4-3.4c-.3-.3-.4-.7-.3-1.2l1.5-5.8c.2-.6.8-1,1.5-.8l57.4,15.4c.4.1.7.4.8.8l4.2,15.7c.1.4,0,.9-.3,1.2l-11.5,11.5c-.2.2-.5.4-.8.4ZM406.9,163.9l55.6,14.9,10.5-10.5-3.9-14.4-55.6-14.9-1.1,3.9,3.7,3.7c.2.2.4.5.4.8s-.1.6-.4.8l-3.7,3.7,1.4,5.1c.2.6-.2,1.3-.8,1.5l-5.1,1.4-1.1,3.9Z"/>
        <path class="st0" d="M378.1,158.7c-.1,0-.2,0-.3,0l-57.4-15.4c-.4-.1-.7-.4-.8-.8l-4.2-15.7c-.1-.4,0-.9.3-1.2l11.5-11.5c.3-.3.7-.4,1.2-.3l57.4,15.4c.3,0,.6.3.7.6.2.3.2.6.1.9l-1.5,5.8c-.1.4-.4.7-.8.8l-4.6,1.2,1.2,4.6c.1.4,0,.9-.3,1.2l-3.4,3.4,3.4,3.4c.3.3.4.7.3,1.2l-1.5,5.8c-.1.5-.6.9-1.2.9ZM321.7,141.1l55.6,14.9,1.1-3.9-3.7-3.7c-.5-.5-.5-1.2,0-1.7l3.7-3.7-1.4-5.1c-.2-.6.2-1.3.8-1.5l5.1-1.4,1.1-3.9-55.6-14.9-10.5,10.5,3.9,14.4Z"/>
        <path class="st0" d="M437.5,210.7c-.3,0-.6-.1-.8-.4l-42-42c-.5-.5-.5-1.2,0-1.7l4.2-4.2c.3-.3.7-.4,1.2-.3l4.6,1.2,1.2-4.6c.1-.4.4-.7.8-.8l4.6-1.2-1.2-4.6c-.1-.4,0-.9.3-1.2l4.2-4.2c.5-.5,1.2-.5,1.7,0l42,42c.3.3.4.7.3,1.2l-4.2,15.7c-.1.4-.4.7-.8.8l-15.7,4.2c-.1,0-.2,0-.3,0ZM397.1,167.4l40.7,40.7,14.4-3.9,3.9-14.4-40.7-40.7-2.9,2.9,1.4,5.1c.2.6-.2,1.3-.8,1.5l-5.1,1.4-1.4,5.1c-.2.6-.8,1-1.5.8l-5.1-1.4-2.9,2.9Z"/>
        <path class="st0" d="M375.4,148.7c-.3,0-.6-.1-.8-.4l-42-42c-.3-.3-.4-.7-.3-1.2l4.2-15.7c.1-.4.4-.7.8-.8l15.7-4.2c.4-.1.9,0,1.2.3l42,42c.2.2.4.5.4.8s-.1.6-.4.8l-4.2,4.2c-.3.3-.7.4-1.2.3l-4.6-1.2-1.2,4.6c-.1.4-.4.7-.8.8l-4.6,1.2,1.2,4.6c.1.4,0,.9-.3,1.2l-4.2,4.2c-.2.2-.5.4-.8.4ZM334.7,105.1l40.7,40.7,2.9-2.9-1.4-5.1c-.2-.6.2-1.3.8-1.5l5.1-1.4,1.4-5.1c.2-.6.8-1,1.5-.8l5.1,1.4,2.9-2.9-40.7-40.7-14.4,3.9-3.9,14.4Z"/>
        <path class="st0" d="M416.6,227.6c-.1,0-.2,0-.3,0l-15.7-4.2c-.4-.1-.7-.4-.8-.8l-15.4-57.4c0-.3,0-.6.1-.9.2-.3.4-.5.7-.6l5.8-1.5c.4-.1.9,0,1.2.3l3.4,3.4,3.4-3.4c.3-.3.7-.4,1.2-.3l4.6,1.2,1.2-4.6c.1-.4.4-.7.8-.8l5.8-1.5c.6-.2,1.3.2,1.5.8l15.4,57.4c.1.4,0,.9-.3,1.2l-11.5,11.5c-.2.2-.5.4-.8.4ZM401.8,221.2l14.4,3.9,10.5-10.5-14.9-55.6-3.9,1.1-1.4,5.1c-.2.6-.8,1-1.5.8l-5.1-1.4-3.7,3.7c-.5.5-1.2.5-1.7,0l-3.7-3.7-3.9,1.1,14.9,55.6Z"/>
        <path class="st0" d="M378.1,138.7c-.2,0-.4,0-.6-.2-.3-.2-.5-.4-.6-.7l-15.4-57.4c-.1-.4,0-.9.3-1.2l11.5-11.5c.3-.3.7-.4,1.2-.3l15.7,4.2c.4.1.7.4.8.8l15.4,57.4c.2.6-.2,1.3-.8,1.5l-5.8,1.5c-.4.1-.9,0-1.2-.3l-3.4-3.4-3.4,3.4c-.3.3-.7.4-1.2.3l-4.6-1.2-1.2,4.6c-.1.4-.4.7-.8.8l-5.8,1.5c-.1,0-.2,0-.3,0ZM364.1,80.4l14.9,55.6,3.9-1.1,1.4-5.1c.2-.6.8-1,1.5-.8l5.1,1.4,3.7-3.7c.5-.5,1.2-.5,1.7,0l3.7,3.7,3.9-1.1-14.9-55.6-14.4-3.9-10.5,10.5Z"/>
        <path class="st0" d="M374.3,227.6c-.3,0-.6-.1-.8-.4l-11.5-11.5c-.3-.3-.4-.7-.3-1.2l15.4-57.4c.2-.6.8-1,1.5-.8l5.8,1.5c.4.1.7.4.8.8l1.2,4.6,4.6-1.2c.4-.1.9,0,1.2.3l3.4,3.4,3.4-3.4c.3-.3.7-.4,1.2-.3l5.8,1.5c.3,0,.6.3.7.6s.2.6.1.9l-15.4,57.4c-.1.4-.4.7-.8.8l-15.7,4.2c-.1,0-.2,0-.3,0ZM364.1,214.5l10.5,10.5,14.4-3.9,14.9-55.6-3.9-1.1-3.7,3.7c-.5.5-1.2.5-1.7,0l-3.7-3.7-5.1,1.4c-.6.2-1.3-.2-1.5-.8l-1.4-5.1-3.9-1.1-14.9,55.6Z"/>
        <path class="st0" d="M412.7,138.7c-.1,0-.2,0-.3,0l-5.8-1.5c-.4-.1-.7-.4-.8-.8l-1.2-4.6-4.6,1.2c-.4.1-.9,0-1.2-.3l-3.4-3.4-3.4,3.4c-.3.3-.7.4-1.2.3l-5.8-1.5c-.6-.2-1-.8-.8-1.5l15.4-57.4c.1-.4.4-.7.8-.8l15.7-4.2c.4-.1.9,0,1.2.3l11.5,11.5c.3.3.4.7.3,1.2l-15.4,57.4c0,.3-.3.6-.6.7-.2.1-.4.2-.6.2ZM407.9,135l3.9,1.1,14.9-55.6-10.5-10.5-14.4,3.9-14.9,55.6,3.9,1.1,3.7-3.7c.5-.5,1.2-.5,1.7,0l3.7,3.7,5.1-1.4c.6-.2,1.3.2,1.5.8l1.4,5.1Z"/>
        <path class="st0" d="M353.4,210.7c-.1,0-.2,0-.3,0l-15.7-4.2c-.4-.1-.7-.4-.8-.8l-4.2-15.7c-.1-.4,0-.9.3-1.2l42-42c.5-.5,1.2-.5,1.7,0l4.2,4.2c.3.3.4.7.3,1.2l-1.2,4.6,4.6,1.2c.4.1.7.4.8.8l1.2,4.6,4.6-1.2c.4-.1.9,0,1.2.3l4.2,4.2c.2.2.4.5.4.8s-.1.6-.4.8l-42,42c-.2.2-.5.4-.8.4ZM338.6,204.3l14.4,3.9,40.7-40.7-2.9-2.9-5.1,1.4c-.6.2-1.3-.2-1.5-.8l-1.4-5.1-5.1-1.4c-.6-.2-1-.8-.8-1.5l1.4-5.1-2.9-2.9-40.7,40.7,3.9,14.4Z"/>
        <path class="st0" d="M415.4,148.7c-.3,0-.6-.1-.8-.4l-4.2-4.2c-.3-.3-.4-.7-.3-1.2l1.2-4.6-4.6-1.2c-.4-.1-.7-.4-.8-.8l-1.2-4.6-4.6,1.2c-.4.1-.9,0-1.2-.3l-4.2-4.2c-.5-.5-.5-1.2,0-1.7l42-42c.3-.3.7-.4,1.2-.3l15.7,4.2c.4.1.7.4.8.8l4.2,15.7c.1.4,0,.9-.3,1.2l-42,42c-.2.2-.5.4-.8.4ZM412.5,142.9l2.9,2.9,40.7-40.7-3.9-14.4-14.4-3.9-40.7,40.7,2.9,2.9,5.1-1.4c.6-.2,1.3.2,1.5.8l1.4,5.1,5.1,1.4c.6.2,1,.8.8,1.5l-1.4,5.1Z"/>
        <path class="st0" d="M328,181.4c-.3,0-.6-.1-.8-.4l-11.5-11.5c-.3-.3-.4-.7-.3-1.2l4.2-15.7c.1-.4.4-.7.8-.8l57.4-15.4c.6-.2,1.3.2,1.5.8l1.5,5.8c.1.4,0,.9-.3,1.2l-3.4,3.4,3.4,3.4c.3.3.4.7.3,1.2l-1.2,4.6,4.6,1.2c.4.1.7.4.8.8l1.5,5.8c0,.3,0,.6-.1.9-.2.3-.4.5-.7.6l-57.4,15.4c-.1,0-.2,0-.3,0ZM317.8,168.3l10.5,10.5,55.6-14.9-1.1-3.9-5.1-1.4c-.3,0-.6-.3-.7-.6-.2-.3-.2-.6-.1-.9l1.4-5.1-3.7-3.7c-.5-.5-.5-1.2,0-1.7l3.7-3.7-1.1-3.9-55.6,14.9-3.9,14.4Z"/>
        <path class="st0" d="M412.7,158.7c-.5,0-1-.4-1.2-.9l-1.5-5.8c-.1-.4,0-.9.3-1.2l3.4-3.4-3.4-3.4c-.3-.3-.4-.7-.3-1.2l1.2-4.6-4.6-1.2c-.4-.1-.7-.4-.8-.8l-1.5-5.8c-.2-.6.2-1.3.8-1.5l57.4-15.4c.4-.1.9,0,1.2.3l11.5,11.5c.3.3.4.7.3,1.2l-4.2,15.7c-.1.4-.4.7-.8.8l-57.4,15.4c-.1,0-.2,0-.3,0ZM412.5,152.1l1.1,3.9,55.6-14.9,3.9-14.4-10.5-10.5-55.6,14.9,1.1,3.9,5.1,1.4c.6.2,1,.8.8,1.5l-1.4,5.1,3.7,3.7c.2.2.4.5.4.8s-.1.6-.4.8l-3.7,3.7Z"/>
        <path class="st0" d="M395.4,168.6c-.3,0-.6-.1-.8-.4l-3.7-3.7-5.1,1.4c-.6.2-1.3-.2-1.5-.8l-1.4-5.1-5.1-1.4c-.3,0-.6-.3-.7-.6-.2-.3-.2-.6-.1-.9l1.4-5.1-3.7-3.7c-.5-.5-.5-1.2,0-1.7l3.7-3.7-1.4-5.1c-.2-.6.2-1.3.8-1.5l5.1-1.4,1.4-5.1c.2-.6.8-1,1.5-.8l5.1,1.4,3.7-3.7c.2-.2.5-.4.8-.4s.6.1.8.4l3.7,3.7,5.1-1.4c.6-.2,1.3.2,1.5.8l1.4,5.1,5.1,1.4c.3,0,.6.3.7.6s.2.6.1.9l-1.4,5.1,3.7,3.7c.2.2.4.5.4.8s-.1.6-.4.8l-3.7,3.7,1.4,5.1c.2.6-.2,1.3-.8,1.5l-5.1,1.4-1.4,5.1c0,.3-.3.6-.6.7-.3.2-.6.2-.9.1l-5.1-1.4-3.7,3.7c-.2.2-.5.4-.8.4ZM391.2,162c.3,0,.6.1.8.4l3.4,3.4,3.4-3.4c.3-.3.7-.4,1.2-.3l4.6,1.2,1.2-4.6c.1-.4.4-.7.8-.8l4.6-1.2-1.2-4.6c-.1-.4,0-.9.3-1.2l3.4-3.4-3.4-3.4c-.3-.3-.4-.7-.3-1.2l1.2-4.6-4.6-1.2c-.4-.1-.7-.4-.8-.8l-1.2-4.6-4.6,1.2c-.4.1-.9,0-1.2-.3l-3.4-3.4-3.4,3.4c-.3.3-.7.4-1.2.3l-4.6-1.2-1.2,4.6c-.1.4-.4.7-.8.8l-4.6,1.2,1.2,4.6c.1.4,0,.9-.3,1.2l-3.4,3.4,3.4,3.4c.3.3.4.7.3,1.2l-1.2,4.6,4.6,1.2c.4.1.7.4.8.8l1.2,4.6,4.6-1.2c.1,0,.2,0,.3,0Z"/>
      </g>
      <g>
        <path class="st0" d="M485.9,139.1c-.3,0-.6-.1-.8-.4l-11.5-11.5c-.3-.3-.4-.7-.3-1.2l4.2-15.7c.1-.4.4-.7.8-.8l15.7-4.2c.4-.1.9,0,1.2.3l11.5,11.5c.3.3.4.7.3,1.2l-4.2,15.7c-.1.4-.4.7-.8.8l-15.7,4.2c-.1,0-.2,0-.3,0ZM475.7,126l10.5,10.5,14.4-3.9,3.9-14.4-10.5-10.5-14.4,3.9-3.9,14.4Z"/>
        <path class="st0" d="M296.5,189.8c-.1,0-.3,0-.4,0l-15.3-5.2c-.6-.2-.9-.8-.8-1.4l5.2-19.2c.1-.4.4-.7.7-.8l18.6-7.1c.4-.2.9,0,1.3.3l11.5,11.5c.3.3.4.7.3,1.2l-4.2,15.7c-.1.4-.4.7-.8.8l-15.7,4.2c-.1,0-.2,0-.3,0ZM282.6,182.6l13.9,4.7,14.7-3.9,3.9-14.4-10.5-10.5-17.3,6.6-4.7,17.5Z"/>
      </g>
      <g>
        <path class="st0" d="M494.3,189.8c-.1,0-.2,0-.3,0l-15.7-4.2c-.4-.1-.7-.4-.8-.8l-4.2-15.7c-.1-.4,0-.9.3-1.2l11.5-11.5c.3-.3.8-.4,1.3-.3l18.6,7c.4.1.6.4.7.8l5.2,19.3c.2.6-.2,1.2-.8,1.4l-15.3,5.2c-.1,0-.3,0-.4,0ZM479.5,183.4l14.7,3.9,13.9-4.7-4.7-17.6-17.3-6.5-10.5,10.5,3.9,14.4Z"/>
        <path class="st0" d="M304.9,139.1c-.1,0-.2,0-.3,0l-15.7-4.2c-.4-.1-.7-.4-.8-.8l-4.2-15.7c-.1-.4,0-.9.3-1.2l11.5-11.5c.3-.3.7-.4,1.2-.3l15.7,4.2c.4.1.7.4.8.8l4.2,15.7c.1.4,0,.9-.3,1.2l-11.5,11.5c-.2.2-.5.4-.8.4ZM290.2,132.7l14.4,3.9,10.5-10.5-3.9-14.4-14.4-3.9-10.5,10.5,3.9,14.4Z"/>
      </g>
      <g>
        <path class="st0" d="M459.7,233.4l-11.5-11.5c-.3-.3-.4-.7-.3-1.2l4.2-15.7c.1-.4.4-.7.8-.8l15.7-4.2c.4-.1.9,0,1.2.3l11.5,11.5-1.7,1.7-11-11-14.4,3.9-3.9,14.4,11,11-1.7,1.7Z"/>
        <path class="st0" d="M321.9,95.1c-.3,0-.6-.1-.8-.4l-11.5-11.5,1.7-1.7,11,11,14.4-3.9,3.9-14.4-11-11,1.7-1.7,11.5,11.5c.3.3.4.7.3,1.2l-4.2,15.7c-.1.4-.4.7-.8.8l-15.7,4.2c-.1,0-.2,0-.3,0Z"/>
      </g>
      <g>
        <path class="st0" d="M431.3,262.9c-.1,0-.2,0-.3,0l-19.4-5.2c-.4-.1-.7-.4-.8-.7l-6.9-18.6c-.2-.4,0-.9.3-1.3l11.5-11.5c.3-.3.7-.4,1.2-.3l15.7,4.2c.4.1.7.4.8.8l4.2,15.7c0,.2,0,.5,0,.7l-5.2,15.3c-.2.5-.6.8-1.1.8ZM412.8,255.5l17.7,4.8,4.7-13.9-3.9-14.7-14.4-3.9-10.5,10.5,6.4,17.3Z"/>
        <path class="st0" d="M374.3,69.7c-.1,0-.2,0-.3,0l-15.7-4.2c-.4-.1-.7-.4-.8-.8l-4.2-15.7c-.1-.4,0-.9.3-1.2l11.5-11.5c.3-.3.7-.4,1.2-.3l15.7,4.2c.4.1.7.4.8.8l4.2,15.7c.1.4,0,.9-.3,1.2l-11.5,11.5c-.2.2-.5.4-.8.4ZM359.5,63.3l14.4,3.9,10.5-10.5-3.9-14.4-14.4-3.9-10.5,10.5,3.9,14.4Z"/>
      </g>
      <g>
        <path class="st0" d="M359.5,262.9c-.5,0-1-.3-1.1-.8l-5.2-15.3c0-.2,0-.5,0-.7l4.2-15.7c.1-.4.4-.7.8-.8l15.7-4.2c.4-.1.9,0,1.2.3l11.5,11.5c.3.3.4.8.3,1.3l-7.1,18.6c-.1.4-.4.6-.8.7l-19.2,5.2c-.1,0-.2,0-.3,0ZM355.5,246.3l4.7,13.9,17.5-4.8,6.6-17.3-10.5-10.5-14.4,3.9-3.9,14.7Z"/>
        <path class="st0" d="M416.6,69.7c-.3,0-.6-.1-.8-.4l-11.5-11.5c-.3-.3-.4-.7-.3-1.2l4.2-15.7c.1-.4.4-.7.8-.8l15.7-4.2c.4-.1.9,0,1.2.3l11.5,11.5c.3.3.4.7.3,1.2l-4.2,15.7c-.1.4-.4.7-.8.8l-15.7,4.2c-.1,0-.2,0-.3,0ZM406.4,56.7l10.5,10.5,14.4-3.9,3.9-14.4-10.5-10.5-14.4,3.9-3.9,14.4Z"/>
      </g>
      <g>
        <path class="st0" d="M331.2,233.4l-1.7-1.7,11-11-3.9-14.4-14.4-3.9-11,11-1.7-1.7,11.5-11.5c.3-.3.7-.4,1.2-.3l15.7,4.2c.4.1.7.4.8.8l4.2,15.7c.1.4,0,.9-.3,1.2l-11.5,11.5Z"/>
        <path class="st0" d="M468.9,95.1c-.1,0-.2,0-.3,0l-15.7-4.2c-.4-.1-.7-.4-.8-.8l-4.2-15.7c-.1-.4,0-.9.3-1.2l11.5-11.5,1.7,1.7-11,11,3.9,14.4,14.4,3.9,11-11,1.7,1.7-11.5,11.5c-.2.2-.5.4-.8.4Z"/>
      </g>
    </g>
    <g>
      <path class="st0" d="M493.7,107.4l-12.8-8.6c-.3-.2-.5-.5-.5-.9l-1-15.4,2.4-.2,1,14.8,12.3,8.2-1.3,2Z"/>
      <path class="st0" d="M309.1,212.7l-1-14.8-12.3-8.2,1.3-2,12.8,8.6c.3.2.5.5.5.9l1,15.4-2.4.2Z"/>
    </g>
    <g>
      <path class="st0" d="M503.4,164.7l-9.7-16.6c-.2-.3-.2-.8,0-1.1l6.8-13.8,2.2,1.1-6.6,13.3,9.3,16-2.1,1.2Z"/>
      <path class="st0" d="M287.4,164.8l-2.1-1.2,9.3-16.1-6.6-13.3,2.2-1.1,6.8,13.8c.2.4.2.8,0,1.1l-9.7,16.7Z"/>
    </g>
    <g>
      <path class="st0" d="M481.7,212.7l-2.4-.2,1-15.4c0-.4.2-.7.5-.9l12.8-8.6,1.3,2-12.3,8.2-1,14.8Z"/>
      <path class="st0" d="M297.2,107.4l-1.3-2,12.3-8.2,1-14.8,2.4.2-1,15.4c0,.4-.2.7-.5.9l-12.8,8.6Z"/>
    </g>
    <g>
      <path class="st0" d="M437.5,247.1l-2-1.3,8.6-12.8c.2-.3.5-.5.9-.5l15.4-1,.2,2.4-14.8,1-8.2,12.3Z"/>
      <path class="st0" d="M330.4,63.6l-.2-2.4,14.8-1,8.2-12.3,2,1.3-8.6,12.8c-.2.3-.5.5-.9.5l-15.4,1Z"/>
    </g>
    <g>
      <path class="st0" d="M379.3,257.6l-1.2-2.1,16.7-9.7c.4-.2.8-.2,1.2,0l16.5,9.7-1.2,2.1-15.9-9.3-16.1,9.3Z"/>
      <path class="st0" d="M395.4,49.3c-.2,0-.4,0-.5-.1l-13.8-6.8,1.1-2.2,13.3,6.6,13.3-6.6,1.1,2.2-13.8,6.8c-.2,0-.3.1-.5.1Z"/>
    </g>
    <g>
      <path class="st0" d="M353.3,247.1l-8.2-12.3-14.8-1,.2-2.4,15.4,1c.4,0,.7.2.9.5l8.6,12.8-2,1.3Z"/>
      <path class="st0" d="M460.4,63.6l-15.4-1c-.4,0-.7-.2-.9-.5l-8.6-12.8,2-1.3,8.2,12.3,14.8,1-.2,2.4Z"/>
    </g>
  </g>
</svg>